<svg width="1424" height="180" viewBox="0 0 1424 180" fill="none" xmlns="http://www.w3.org/2000/svg">
<g clip-path="url(#clip0_29_67)">
<path d="M1389.34 112.128C1390.24 103.505 1384.24 104.018 1384.09 109.689C1384.01 112.972 1386.01 117.658 1386.13 118.388L1386.13 144.76C1386.13 144.76 1386.32 156.548 1386.64 162.275C1386.91 167.025 1387.34 171.777 1387.88 176.503C1388.05 176.634 1388.19 176.025 1388.2 175.922C1388.65 173.307 1389.03 156.043 1389.02 152.18C1389.02 151.798 1389 151.414 1389 151.031C1389 149.577 1388.95 148.12 1388.93 146.666C1388.93 146.438 1388.92 146.206 1388.92 145.977C1388.86 142.181 1388.74 138.343 1388.61 134.548C1388.53 131.886 1387.61 119.388 1387.68 118.592C1387.71 118.258 1389.15 114.03 1389.34 112.128ZM1386.8 116.066C1385.16 111.459 1385.54 109.197 1385.8 108.298C1385.91 107.905 1386.19 106.914 1386.64 106.891C1387.09 106.868 1387.47 107.824 1387.61 108.186C1388.52 110.463 1387.58 113.873 1386.8 116.066Z" fill="#E4EAF6"/>
</g>
<g clip-path="url(#clip1_29_67)">
<path d="M4.63599 0H0V2.29603H4.63599V0Z" fill="#E4EAF6"/>
<path d="M1372.96 2.29603H1363.72V0H1372.96V2.29603ZM1354.47 2.29603H1345.22V0H1354.47V2.29603ZM1335.98 2.29603H1326.73V0H1335.98V2.29603ZM1317.49 2.29603H1308.24V0H1317.49V2.29603ZM1299 2.29603H1289.75V0H1299V2.29603ZM1280.51 2.29603H1271.26V0H1280.51V2.29603ZM1262.02 2.29603H1252.77V0H1262.02V2.29603ZM1243.53 2.29603H1234.28V0H1243.53V2.29603ZM1225.03 2.29603H1215.78V0H1225.03V2.29603ZM1206.54 2.29603H1197.29V0H1206.54V2.29603ZM1188.05 2.29603H1178.8V0H1188.05V2.29603ZM1169.56 2.29603H1160.31V0H1169.56V2.29603ZM1151.07 2.29603H1141.82V0H1151.07V2.29603ZM1132.58 2.29603H1123.33V0H1132.58V2.29603ZM1114.09 2.29603H1104.84V0H1114.09V2.29603ZM1095.6 2.29603H1086.35V0H1095.6V2.29603ZM1077.1 2.29603H1067.85V0H1077.1V2.29603ZM1058.61 2.29603H1049.36V0H1058.61V2.29603ZM1040.12 2.29603H1030.87V0H1040.12V2.29603ZM1021.63 2.29603H1012.38V0H1021.63V2.29603ZM1003.14 2.29603H993.894V0H1003.14V2.29603ZM984.653 2.29603H975.405V0H984.653V2.29603ZM966.164 2.29603H956.915V0H966.164V2.29603ZM947.674 2.29603H938.425V0H947.674V2.29603ZM929.176 2.29603H919.927V0H929.176V2.29603ZM910.686 2.29603H901.437V0H910.686V2.29603ZM892.196 2.29603H882.948V0H892.196V2.29603ZM873.706 2.29603H864.458V0H873.706V2.29603ZM855.217 2.29603H845.968V0H855.217V2.29603ZM836.727 2.29603H827.478V0H836.727V2.29603ZM818.237 2.29603H808.988V0H818.237V2.29603ZM799.739 2.29603H790.49V0H799.739V2.29603ZM781.249 2.29603H772.001V0H781.249V2.29603ZM762.759 2.29603H753.511V0H762.759V2.29603ZM744.27 2.29603H735.021V0H744.27V2.29603ZM725.78 2.29603H716.531V0H725.78V2.29603ZM707.29 2.29603H698.041V0H707.29V2.29603ZM688.8 2.29603H679.551V0H688.8V2.29603ZM670.31 2.29603H661.061V0H670.31V2.29603ZM651.812 2.29603H642.564V0H651.812V2.29603ZM633.323 2.29603H624.074V0H633.323V2.29603ZM614.833 2.29603H605.584V0H614.833V2.29603ZM596.343 2.29603H587.094V0H596.343V2.29603ZM577.853 2.29603H568.604V0H577.853V2.29603ZM559.363 2.29603H550.114V0H559.363V2.29603ZM540.873 2.29603H531.624V0H540.873V2.29603ZM522.383 2.29603H513.135V0H522.383V2.29603ZM503.886 2.29603H494.637V0H503.886V2.29603ZM485.396 2.29603H476.147V0H485.396V2.29603ZM466.906 2.29603H457.657V0H466.906V2.29603ZM448.416 2.29603H439.167V0H448.416V2.29603ZM429.926 2.29603H420.677V0H429.926V2.29603ZM411.436 2.29603H402.188V0H411.436V2.29603ZM392.947 2.29603H383.698V0H392.947V2.29603ZM374.457 2.29603H365.208V0H374.457V2.29603ZM355.959 2.29603H346.71V0H355.959V2.29603ZM337.469 2.29603H328.22V0H337.469V2.29603ZM318.979 2.29603H309.73V0H318.979V2.29603ZM300.489 2.29603H291.241V0H300.489V2.29603ZM282 2.29603H272.751V0H282V2.29603ZM263.51 2.29603H254.261V0H263.51V2.29603ZM245.02 2.29603H235.771V0H245.02V2.29603ZM226.53 2.29603H217.281V0H226.53V2.29603ZM208.032 2.29603H198.784V0H208.032V2.29603ZM189.542 2.29603H180.294V0H189.542V2.29603ZM171.053 2.29603H161.804V0H171.053V2.29603ZM152.563 2.29603H143.314V0H152.563V2.29603ZM134.073 2.29603H124.824V0H134.073V2.29603ZM115.583 2.29603H106.334V0H115.583V2.29603ZM97.0931 2.29603H87.8443V0H97.0931V2.29603ZM78.6032 2.29603H69.3544V0H78.6032V2.29603ZM60.1056 2.29603H50.8568V0H60.1056V2.29603ZM41.6158 2.29603H32.3669V0H41.6158V2.29603ZM23.1259 2.29603H13.8771V0H23.1259V2.29603Z" fill="#E4EAF6"/>
<path d="M1388 5.74007H1385.68V2.29603H1382.2V0H1388V5.74007Z" fill="#E4EAF6"/>
<path d="M1388 92.7136H1385.68V84.0193H1388V92.7136ZM1388 75.3174H1385.68V66.6231H1388V75.3174ZM1388 57.9211H1385.68V49.2269H1388V57.9211ZM1388 40.5249H1385.68V31.8306H1388V40.5249ZM1388 23.1363H1385.68V14.442H1388V23.1363Z" fill="#E4EAF6"/>
<path d="M1388 101.408H1385.68V106H1388V101.408Z" fill="#E4EAF6"/>
</g>
<defs>
<clipPath id="clip0_29_67">
<rect width="5.33577" height="71.0068" fill="white" transform="translate(1384.02 105.571) rotate(-0.966836)"/>
</clipPath>
<clipPath id="clip1_29_67">
<rect width="1388" height="106" fill="white"/>
</clipPath>
</defs>
</svg>
