<?xml version="1.0" encoding="UTF-8"?>
<svg id="Layer_2" data-name="Layer 2" xmlns="http://www.w3.org/2000/svg" xmlns:xlink="http://www.w3.org/1999/xlink" viewBox="0 0 6.53 71.09">
  <defs>
    <style>
      .cls-1 {
        clip-path: url(#clippath);
      }

      .cls-2 {
        fill: none;
      }

      .cls-2, .cls-3 {
        stroke-width: 0px;
      }

      .cls-3 {
        fill: #e4eaf6;
      }
    </style>
    <clipPath id="clippath">
      <rect class="cls-2" x=".6" y=".04" width="5.34" height="71.01" transform="translate(-.6 .06) rotate(-.97)"/>
    </clipPath>
  </defs>
  <g id="Layer_1-2" data-name="Layer 1">
    <g class="cls-1">
      <path class="cls-3" d="M5.32,6.65C6.22-1.98.22-1.46.07,4.21-.01,7.49,1.99,12.18,2.11,12.91v26.37s.19,11.79.51,17.51c.27,4.75.7,9.5,1.24,14.23.17.13.31-.48.32-.58.45-2.61.83-19.88.82-23.74,0-.38-.02-.77-.02-1.15,0-1.45-.05-2.91-.07-4.37,0-.23-.01-.46-.01-.69-.06-3.8-.18-7.63-.31-11.43-.08-2.66-1-15.16-.93-15.96.03-.33,1.47-4.56,1.66-6.46ZM2.78,10.59C1.14,5.98,1.52,3.72,1.78,2.82c.11-.39.39-1.38.84-1.41.45-.02.83.93.97,1.29.91,2.28-.03,5.69-.81,7.88Z"/>
    </g>
  </g>
</svg>