<?xml version="1.0" encoding="UTF-8"?>
<svg id="Layer_2" data-name="Layer 2" xmlns="http://www.w3.org/2000/svg" viewBox="0 0 90.66 80.44">
  <defs>
    <style>
      .cls-1 {
        fill: #fff;
        stroke-width: 0px;
      }
    </style>
  </defs>
  <g id="Layer_1-2" data-name="Layer 1">
    <path class="cls-1" d="M89.08,27.02L47.88.74c-1.56-.99-3.54-.99-5.1,0L1.58,27.02c-.99.63-1.58,1.73-1.58,2.9v42.67c0,4.34,3.51,7.85,7.85,7.85h74.96c4.34,0,7.85-3.51,7.85-7.85V29.92c0-1.17-.59-2.27-1.58-2.9ZM86.15,30.8l-36.4,22.28c-2.72,1.66-6.12,1.66-8.84,0L4.51,30.8c-1.29-.79-.73-2.76.77-2.76h80.1c1.5,0,2.06,1.97.77,2.76Z"/>
  </g>
</svg>