<?xml version="1.0" encoding="UTF-8"?>
<svg id="Layer_2" data-name="Layer 2" xmlns="http://www.w3.org/2000/svg" viewBox="0 0 96 96">
  <defs>
    <style>
      .cls-1 {
        fill: #fff;
        stroke-width: 0px;
      }
    </style>
  </defs>
  <g id="Layer_1-2" data-name="Layer 1">
    <path class="cls-1" d="M48,0C34.97,0,33.33.06,28.21.29c-5.11.23-8.6,1.04-11.65,2.23-3.16,1.23-5.83,2.87-8.5,5.53-2.67,2.67-4.31,5.35-5.54,8.5-1.19,3.05-2,6.54-2.23,11.65-.23,5.12-.29,6.76-.29,19.79s.06,14.67.29,19.79c.24,5.11,1.04,8.6,2.23,11.65,1.23,3.16,2.87,5.83,5.54,8.5,2.67,2.67,5.34,4.31,8.5,5.54,3.05,1.19,6.54,2,11.65,2.23,5.12.23,6.76.29,19.79.29s14.67-.06,19.79-.29c5.11-.23,8.6-1.04,11.66-2.23,3.16-1.23,5.83-2.87,8.5-5.54,2.67-2.67,4.31-5.35,5.54-8.5,1.18-3.05,1.99-6.54,2.23-11.65.23-5.12.29-6.75.29-19.79s-.06-14.67-.29-19.79c-.24-5.11-1.05-8.6-2.23-11.65-1.23-3.16-2.87-5.83-5.54-8.5-2.67-2.67-5.34-4.31-8.5-5.53-3.06-1.19-6.55-2-11.66-2.23-5.12-.23-6.75-.29-19.79-.29h.01ZM43.7,8.65c1.28,0,2.7,0,4.31,0,12.82,0,14.33.05,19.4.28,4.68.21,7.22,1,8.91,1.65,2.24.87,3.84,1.91,5.52,3.59,1.68,1.68,2.72,3.28,3.59,5.52.66,1.69,1.44,4.23,1.65,8.91.23,5.06.28,6.58.28,19.39s-.05,14.33-.28,19.39c-.21,4.68-1,7.22-1.65,8.91-.87,2.24-1.91,3.83-3.59,5.51-1.68,1.68-3.28,2.72-5.52,3.59-1.69.66-4.23,1.44-8.91,1.65-5.06.23-6.58.28-19.4.28s-14.34-.05-19.4-.28c-4.68-.22-7.22-1-8.91-1.65-2.24-.87-3.84-1.91-5.52-3.59-1.68-1.68-2.72-3.28-3.59-5.52-.66-1.69-1.44-4.23-1.65-8.91-.23-5.06-.28-6.58-.28-19.4s.05-14.33.28-19.39c.21-4.68,1-7.22,1.65-8.91.87-2.24,1.91-3.84,3.59-5.52,1.68-1.68,3.28-2.72,5.52-3.59,1.69-.66,4.23-1.44,8.91-1.66,4.43-.2,6.14-.26,15.09-.27h0ZM73.63,16.62c-3.18,0-5.76,2.58-5.76,5.76s2.58,5.76,5.76,5.76,5.76-2.58,5.76-5.76-2.58-5.76-5.76-5.76h0ZM48,23.35c-13.61,0-24.65,11.04-24.65,24.65s11.04,24.65,24.65,24.65c13.61,0,24.65-11.03,24.65-24.65s-11.03-24.65-24.65-24.65h0ZM48,32c8.84,0,16,7.16,16,16s-7.16,16-16,16-16-7.16-16-16,7.16-16,16-16Z"/>
  </g>
</svg>