<?xml version="1.0" encoding="UTF-8"?>
<svg id="Layer_2" data-name="Layer 2" xmlns="http://www.w3.org/2000/svg" viewBox="0 0 368.93 51.48">
  <defs>
    <style>
      .cls-1 {
        fill: #e4eaf6;
        stroke-width: 0px;
      }
    </style>
  </defs>
  <g id="Layer_1-2" data-name="Layer 1">
    <g>
      <path class="cls-1" d="M1.8,50.26l2.74-.65H1.15c-.36,0-.5-.5-.58-.65v-3.6l1.01-.5H.5c0-1.01.65-.86,1.08-1.44H.5c0-.65,1.15.07,1.15-1.44,0-.65-.29-.79-1.08-.79-.07,0-.07.07-.14.07,0-.5.14-.65.14-1.01,0-.07-.07-.22-.14-.22C.43,30.39.14,25.92.14,8.64c.29-.22.58-.5.94-.58H.07c0-.36-.07-.58-.07-1.01,0-2.66,1.37-3.89,4.03-3.96l36.79-.43c7.2,0,12.96,4.03,12.96,11.95,0,1.94-.29,4.68-1.51,6.34-.86,1.15-1.94,2.74-1.94,4.18,0,1.94,2.88,2.66,2.88,4.46l-.94.72h1.58c.14,0,.43.72.58,1.01-.65.58-1.3.72-1.44,1.58h1.94c.22,0,.22.5.22.58v.22s-1.3.36-1.37.79c0,.14.29.22.58.22.14,0,.29-.07.43-.07.58,0,.65.79.65,1.73,0,2.16.07,5.4-2.45,5.83h1.22c0,.86-.72,1.87-1.22,2.45-5.26,5.98-14.26,6.19-21.75,6.19s-13.1.07-17.57.07c-5.47,0-8.93-.07-11.38-.22-.29-.14-.5-.22-.5-.43ZM3.24,26.07c.36,0,.79-.07.79-.58,0-.72-.94-1.66-1.73-1.66-.5,0-1.8.58-1.8,1.3,0,.79,2.38.94,2.74.94ZM.94,40.04c0,.07.07.22.22.22.07,0,.14-.14.14-.22s-.07-.22-.14-.22c-.14,0-.22.14-.22.22ZM5.18,49.4c-.07,0-.29,0-.29.07s.22.14.29.14c.14,0,.14-.07.22-.14,0-.07-.07-.07-.22-.07ZM7.49,34.27c.07,0,2.02-.5,2.02-.79v-.22l-2.38-.5c-.58,0-1.66,0-1.87.72.22.86,1.37.79,2.23.79ZM13.46,28.44c.22,0,.29-.14.36-.22,0-1.15-1.8-1.3-2.45-1.3,0,.94,1.22,1.51,2.09,1.51ZM11.81,14.76v4.46c0,1.22.94,1.73,1.8,2.02,5.98,0,9.79.07,12.82.07,3.67,0,6.26-.07,10.15-.36,2.45-.14,5.33-1.37,5.33-4.1,0-2.38-2.3-4.1-4.54-4.1-2.74,0-19.73.43-23.19.58-.72,0-2.38.29-2.38,1.44ZM19.15,40.54c.07,0,.36.07.36.07,0,0,1.73-.36,2.59-.58l15.84-.5c2.74-.07,4.32-1.37,5.76-3.6,0,0-.43-.14-.43-.79,0,0,.29-.36.36-.36,0-.58-.5-.72-.5-1.08-1.51-2.09-3.6-2.88-6.34-2.88h-12.31c-1.01.43-2.16.5-3.17.5h-2.59c-4.18.5-6.77-.5-6.77,4.39,0,1.58.43,4.54,2.45,4.54,1.58,0,3.17-.29,4.68-.29.22,0,1.58.07,1.73.07l-1.66.5ZM18.72,30.31v-1.37c0-.29-.65-.29-.86-.29-.29,0-1.15,0-1.15.36,0,.65,1.44,1.3,2.02,1.3ZM18.43,40.68q-.14,0-.14.07s.07.07.14.07.22-.07.29-.07c0-.07-.07-.07-.29-.07ZM22.39,27.22c.58,0,1.87.07,1.87-.36,0-.58-.14-1.37-.72-1.37-.72,0-2.02.65-2.38,1.22.14.43.72.5,1.22.5ZM25.35,30.6h-.07c0,.07,0,.14.07.14l.14-.14h-.14ZM31.11,26.28c1.58,0,3.6-.07,3.6-.94,0-.65-.58-.72-1.08-.72-.72,0-5.98.43-5.98.86,0,.94,1.58.79,3.46.79ZM51.77,32.76h.5l-.22-.22-.29.22ZM54.51,36.65c0,.07,0,.22.14.22s.22-.14.22-.22c0-.14-.07-.29-.22-.29s-.14.14-.14.29Z"/>
      <path class="cls-1" d="M63.58,25.13c-.07-.43-.65-.5-1.01-.65v-1.22c.43,0,.79-.22.79-.29,0-.58-.79,0-.79-.94,0-.58.29-.65.86-.65h.14v-.36h-1.15v-.14c0-.29.43-.94,1.01-1.08h-.86V7.13c0-1.01.65-2.88,1.94-2.88h6.26c.5,0,1.73.86,1.73,1.51v13.32h-1.01c.29.36.65.43,1.08.43,0,1.08,0,1.37-1.08,1.66.43.07,1.01.22,1.01.72,0,.58-.79.07-1.01.79h1.01v1.58c-.36,0-.94.14-1.01.58h1.01v23.26c0,2.38-2.74,2.45-4.32,2.45s-5.62,0-5.62-2.66v-22.75h1.01ZM70.56,44.28c.86,0,.86-.43.86-1.37-.29,0-1.87,0-1.87.72,0,.58.65.65,1.01.65Z"/>
      <path class="cls-1" d="M83.16,31.68c.14,0,.65-.14.65-1.08,0-.65-2.74-1.58-2.74-1.58v-5.62c.94.65,2.16.79,3.1.79.14,0,.5-.07.58-.07-1.01-1.22-2.09-1.58-3.74-1.58,0-.58.07-2.95.07-3.46.07-1.08,1.22-1.51,1.22-2.52,0-.22-.07-.5-.07-.5h-.86c0-1.08.36-4.25,3.02-4.25.29,0,.36.29.36.5,0,1.22-.43,2.52-1.44,3.46,3.67,0,.72-3.02,3.17-3.96,5.04,0,5.26,1.01,5.26,5.62,0,1.58-.94.79-.94,1.8,1.08,1.44,1.3,1.8,1.3,5.98,0,1.15-.07,2.23-.07,3.24,0,7.27.65,13.39,10.8,13.39,4.54,0,12.46-1.22,12.53-7.27l.5-19.37c0-.72.72-2.38,1.73-2.38h6.98c.72,0,1.44.72,1.73,1.44-.58,2.52-.07,13.61-.5,32.26-.07,1.22-.86,3.46-1.94,3.46-1.37,0-2.59.07-3.96.07-3.6,0-2.88-2.95-5.04-2.95-1.15,0-2.59.79-3.6,1.15-3.53,1.3-7.06,2.23-10.8,2.23-11.02,0-16.63-4.9-18.79-15.27-.29-1.15-.58-2.59-.58-3.89.65,0,1.3.36,2.09.36ZM84.1,26.14c.79,0,.72-.65.72-1.08-.65,0-.72.72-.72,1.08ZM85.9,29.23c.07,0,.36-.14.36-.22-.36-.22-.58-.29-.94-.29,0,.29.29.5.58.5ZM85.97,29.45c0,.07.14.29.29.29.07,0,.14-.22.14-.29s-.07-.22-.14-.22c-.14,0-.29.14-.29.22ZM88.06,26.86c.5,0,.72-.5.72-.79-.65,0-.72.22-.72.79Z"/>
      <path class="cls-1" d="M154.44,49.61h-1.66c-1.51,0-3.1.29-4.54.29-.94,0-2.88-.72-3.46-1.01-1.08-.43-3.74-1.73-3.96-1.87l-.36-.58c.72,0,1.87,0,1.87-.43-1.08-.36-1.73-.43-2.3-.43-.07,0-.22.07-.36.07-.79,0-1.22-.14-3.1-2.23.65,0,1.73-.22,1.73-.5-.29-.36-1.66-.36-2.38-.58-2.38-1.58-3.46-7.2-3.46-9.72,0-2.16,1.01-.79,1.15-1.94h-.94l.79-.5c-.36,0-1.01.07-1.01-.36,0-1.08,0-3.1,1.08-3.53-.14,0-.36-.29-.36-.36,0-1.08,1.08-4.03,2.16-4.46.65-.22,1.37-.07,1.94-.5l-1.37-.43c.22-1.01,1.22-1.94,2.09-2.74,6.26-5.62,13.9-5.98,21.89-5.98,6.84,0,14.26,2.74,17.93,8.86-.79,0-1.44.5-1.44.5.94.94,2.09-.72,2.95,2.38,0,.43-.86.43-1.3.86h1.51c.5,0,1.22,5.9,1.22,6.62,0,3.02-2.38,3.31-4.82,3.31h-2.16c0-.86-.07-1.58-.58-2.3-.65.43-1.44.58-2.3.58-.29,0-.72,0-1.08-.07l-.72.72c1.01.94,2.66-.07,3.6,1.08h-26.07c-1.15,0-1.66,1.08-1.66,2.02,0,3.17,3.24,4.39,5.62,5.83,0,0,.14.22.14.29h-1.66l.29.43c0,.22,9.43.5,9.43.5.65,0,7.06-.22,7.78-.5l.65-.43h-1.51v-.29c1.01-.72,3.02-2.74,4.39-2.74h8.21c1.01,0,1.73.65,1.73,1.66,0,.29-.43,1.37-.72,1.37h-3.46v.58h2.95c0,2.23-3.24.5-3.89,1.87h2.23c-1.3,2.59-3.74,1.51-5.83,2.74h2.59c0,.07-.14.22-.14.29-5.4,3.1-11.38,3.24-17.21,3.24-2.16,0-4.61.07-6.48-.72l4.32-.86ZM140.26,40.97c0,.07,0,.22.22.22.14,0,.22-.14.22-.22,0-.22-.07-.29-.22-.29-.22,0-.22.07-.22.29ZM151.49,27.72h1.3c-.14,0,4.75-.5,7.27-.72h2.52c2.88,0,5.62-.22,5.62-1.8s-1.01-2.59-2.16-3.53c0,0,.22-.14.22-.22-3.02-.94-6.12-2.02-9.43-2.02-2.52,0-7.27.72-9.58,1.73l.5.29c-.22.5-2.52,2.38-2.52,3.31,0,.65,1.01,1.8,1.44,1.8h10.15c-.29.29-3.6.94-5.33,1.15ZM150.77,27.87c0,.14.07.22.22.22,0,0,.07-.07.07-.22h-.29ZM152.21,19.51v-.5c-.14,0-.5,0-.72.22.22.22.58.29.72.29ZM167.83,33.27c0,.14,0,.22.14.22.07,0,.14-.07.14-.22s-.07-.29-.14-.29c-.14,0-.14.14-.14.29ZM170.21,30.6c.5,0,.65-.07.65-.65,0-1.01-1.8-2.09-2.74-2.09,0,.86,1.22,2.74,2.09,2.74Z"/>
      <path class="cls-1" d="M189.57,48.75c-.58-1.3-2.67-.86-2.81-1.44-.22-6.05-.36-12.82-.36-19.08,1.01,0,.36,1.51,1.22,1.51.29,0,.58-.14.58-.43,0-.65-.29-3.17-.5-3.17-.29,0-1.08.22-1.22.22v-1.15c.36,0,.94.22,1.01.22.29,0,.5-.14.5-.43,0-.94-.43-2.45-1.22-3.02v-2.09c.22-.07,1.22-.07,1.22-.65,0-.36-1.22-.22-1.22-1.01v-5.62c.14,0,.29-.22.29-.29,0-.43-.29-.29-.29-.65,0-.5-.14-6.98.94-6.98,10.87-.79,20.74-1.08,30.89-1.08,1.58,0,9.07.07,10.66.07.07.29.22.58.43.79.5-.36.22-.79.94-.79,6.55,0,10.66,6.7,10.66,12.67,0,1.08-.22,1.22-.5,1.22-.14,0-.29-.07-.43-.07s-.36.07-.5.43c0,.14.07.29.07.29h1.37c0,6.91-4.54,12.6-10.8,14.4-.29.07-1.08.29-1.22.29h-9.07c0-1.01-.86-2.66-2.09-2.66-.58,0-.94,1.58-.94,2.38v.29c-1.87,0-10.8.14-12.82.22-.29-.36-.22-1.37-.79-1.37,0,.29-.07.58-.07.86,0,.14,0,.36.14.5-1.94,0-5.26,0-5.26,1.37,0,.22.07.43.07.43h.86c-.07.22-.07,1.22-.07,2.59v3.24c0,3.67-.07,7.63-1.08,7.63-.36,0-.65-.07-1.08-.07-.5,0-1.01.07-1.08.5l.22.43h2.45c0,2.02-1.8,2.16-3.74,2.16-3.89,0-7.92.14-7.92-2.66h2.59ZM188.71,41.33c.43,0,.72,0,.72-.58,0-.72-1.01-.79-1.58-.79,0,.94-.07,1.37.86,1.37ZM189.57,34.85c.36,0,.58-.07.58-.36,0-.36-.36-.43-.65-.43-.14,0-.5,0-.58.29.22.43.36.5.65.5ZM190.73,47.88c.36,0,.65,0,.94-.58-.5-.29-1.08-.22-1.58-.22,0,.58.14.79.65.79ZM191.88,34.92v-.65c-.22,0-.5.07-.58.29.07.22.36.36.58.36ZM192.89,42.34c.5,0,.65-.43.65-.72,0-.36-.07-.58-.5-.58-.29,0-.65.07-.72.58,0,.29.5.65.58.72ZM195.98,6.34c.58,0,1.94-1.08,1.94-1.66h-2.52c-.29,0-.29.65-.29.65,0,.58.22,1.01.86,1.01ZM196.27,42.12c0-.36-.07-.72-.29-1.08-.14.14-.58.29-.58.36,0,.36.5.72.86.72ZM196.34,34.85c.29,0,1.15-.14,1.15-.65,0-.29-.79-.36-.86-.36-.22.07-.94.22-.94.65,0,.36.29.36.65.36ZM196.63,39.17v-.14c0-.22-.22-1.15-.22-1.15h-.43c0,.5.22,1.08.65,1.3ZM197.13,40.68h.58c0-.43-.43-.72-.58-.79v.79ZM200.95,21.53h23.4c1.66,0,4.9-1.58,4.9-3.31,0-2.23-1.73-4.68-4.1-4.68h-23.62c-2.3,0-2.95,4.03-2.95,5.47,0,.5,1.66,2.52,2.38,2.52ZM201.38,29.52c.29,0,.58-.07.58-.36,0-.22-.14-.29-.22-.36-.36.07-.36.5-.36.72ZM202.75,26.93c0,.07.07.14.22.14.07,0,.14-.07.14-.14,0-.14-.07-.36-.14-.36-.14,0-.22.22-.22.36ZM203.9,27.07c.07,0,.86.65,1.08.65.07,0,.14,0,.14-.07,0-.58-.79-.79-1.22-.79v.22ZM212.83,28.59c0,.22,2.23.22,2.59.22.5,0,1.08,0,1.08-.36,0-.14-.36-.43-.5-.43h-3.17v.58ZM219.96,23.26c.07,0,.5-.22.65-.5-.22-.43-.94-.58-1.22-.58-.36,0-.5.07-.79.29.29.5.79.79,1.37.79ZM222.98,10.3c.43,0,.5-.29.5-.79,0-.22-.07-.72-.65-.72-.43,0-.43.5-.43.65,0,.5,0,.86.58.86ZM226.58,27.65c0-.43-.14-.58-.58-.58,0,.36.29.58.58.58ZM227.23,9.29c.94,0,1.3,0,1.3-.86-.86,0-1.3,0-1.3.86ZM232.85,7.7c.72,0,1.15,0,1.94-.14,0-.58-.36-1.01-1.01-1.01-.36,0-1.44.29-1.44.94,0,.22.14.22.5.22ZM233.5,16.78c.58,0,1.8-.58,1.8-1.44l-.29-.36c-.72.65-2.16,1.51-2.16,1.51.07.29.36.29.65.29ZM235.23,23.04c.22,0,.22-.22.22-.5,0-.36,0-1.01-.58-1.01-.29,0-.29.36-.29.65s.22.86.65.86ZM235.01,11.16l.22-.22h-.22v.22Z"/>
      <path class="cls-1" d="M244.65,19.3c0-5.91.43-6.05,5.76-6.05,4.9,0,4.32,3.17,5.54,3.17.29,0,1.01-.36,1.22-.5,3.46-2.3,6.19-4.1,10.37-4.1,1.87,0,3.17.36,3.17,2.23v6.48c0,2.59-6.84,2.09-8.42,2.88-2.74,1.3-6.34,4.39-6.34,7.7v16.13c0,1.94-2.02,2.3-3.89,2.3-3.89,0-6.12.14-6.41-2.81-.22-4.18-.86-23.33-1.01-27.43ZM254.08,43.2c.43,0,.79-.22.79-.72-.5,0-1.44.07-1.44.43,0,.07.5.22.65.29Z"/>
      <path class="cls-1" d="M273.31,2.66c1.15,0,2.45-.58,3.6-.58.65,0,1.15.07,1.37.07l.29-.29s0-.07-.29-.43c-.22,0-.58.07-.72.07-1.51,0-2.23-.36-3.6-.36v-.14c0-.65,3.6-1.01,3.89-1.01,3.02,0,5.4,1.51,5.4,4.68s-2.81,4.54-5.62,4.54-5.33-2.02-5.33-4.9c0-1.08,0-1.44,1.01-1.66ZM272.52,45.87c.58-.14,1.66-.43,1.66-.72s-1.22-.29-1.8-.29c0-1.22.22-1.37.43-1.37.07,0,.29.07.36.07s.58-.14.58-.65c0-.07-.14-.36-.14-.36h-1.08v-22.03l1.22-.72v-.36h-.94v-3.24c.65-.22,1.8-.36,1.8-1.01h-1.94c0-1.87.14-2.88,2.02-3.38h4.75c1.73,0,3.82.22,3.82,1.87,0,.72-2.09.22-2.52,1.08.22.22,1.58.29,2.52.29v2.59c-.65.14-1.22.65-1.3.65,0,.14.07.43.07.43h1.22v19.66l-.36,2.88c-.14.07-.94.43-1.22.79.36.72,1.3-.07,1.3.94s-1.3.22-1.3,1.01c0,.14.07.29.07.29h1.15v3.74l-.5.22c-1.01.79-5.47,1.08-6.34,1.08-2.59,0-3.53-.65-3.53-2.66v-.79ZM275.76,33.41c.36,0,.58,0,.86-.36-.58-.43-1.15-.58-1.87-.58,0,.72.43.94,1.01.94ZM275.18,42.99h.14v-.72h-.14v.72ZM276.84,25.99v-1.01c-.07,0-.86,0-.94.36.22.36.58.65.94.65ZM277.12,45.44c0,.07.14.22.29.22.07,0,.14-.14.14-.22,0-.14-.07-.29-.14-.29-.14,0-.29.14-.29.29ZM277.48,44.5c0,.07,0,.22.14.22,0,0,.07-.14.07-.22,0-.22-.07-.36-.07-.36-.14,0-.14.14-.14.36ZM277.99,21.6c0,.07.07.14.07.14.07,0,.07-.07.07-.14,0,0,0-.07-.07-.07l-.07.07ZM280,22.18c.43,0,.5-.22.5-.65,0-.58.07-1.01-.5-1.01-.22,0-1.15.58-1.44,1.01.29.43.94.65,1.44.65ZM330.19,39.03h-1.3s.07-.79.14-1.15c.14-.72,1.3-.22,1.3-1.3,0-.72-.36-.79-.94-.79h-.14v-.5c0-1.58-.14-5.4-.22-6.34-.43-5.69-5.9-8.71-11.16-8.71-1.94,0-2.45-.07-4.54.43-2.16.58-9.14,3.67-9.14,6.91v11.09c0,.36-1.01.29-1.3.65,0,.14.07.36.07.36h1.15s-.07.43-.14.72c-.14.14-1.08.29-1.08.5,0,.07.29.29.29.36h.79v2.74l-1.3.5v.43h1.3v3.89c0,1.15-2.16,1.44-2.88,1.44l-6.55-.29c-1.01-.36-1.58-1.51-1.58-2.38s1.15-.72,2.09-1.15c-.07-.29-.29-.36-.5-.36-.43,0-.79.07-1.08.07s-.5-.07-.5-.29v-2.88l1.22-.58v-.5h-1.22c-.07-.07-.07-.14-.07-.22,0-.65.86-.94,1.3-.94v-.58h-1.22v-22.75c0-.65,1.51-.43,1.73-1.01,0-.22-.29-.22-.79-.22h-.58c-.07-.29-.36-1.44-.36-1.66,0-.29.43-.65.58-.86,1.3-.14,7.49-.79,8.71-.86.07,0,.72-.07,1.01-.07.58,0,2.38.94,2.38,1.37,0,.29-.22.29-.29.43,2.23,0,4.03-.36,6.12-1.08-1.37,0-2.38.36-3.53.36-.14,0-.5-.14-.58-.14,4.9-2.59,10.37-2.95,15.91-2.95v.36l-4.61.94c.14.07,1.3.07,1.51.07,1.94,0,3.74-.5,5.62-.5,2.09,0,4.32,1.08,6.12,2.09,7.56,4.25,8.71,12.75,8.71,20.59-.65.22-1.15.58-1.15.94,0,.22.07.72.07.72h1.08v.79l-1.15.43v.43h1.22c-.14.22-.14.72-.14,1.37,0,1.44.14,3.38.14,5.54,0,3.1-.29,5.98-2.02,5.98h-7.7c-1.01,0-1.94-1.01-1.94-1.94v-8.5c-.07-.07.86-.5,1.15-.72v-.29ZM295.05,12.03h6.12l-7.2.79v-.29l1.08-.5ZM311.69,13.32s.07.14.22.14.22-.14.22-.14c0-.14-.07-.29-.22-.29s-.22.14-.22.29ZM312.26,13.32s0,.14.07.14c.14,0,.22-.14.22-.14,0-.14-.07-.29-.22-.29-.07,0-.07.14-.07.29Z"/>
      <path class="cls-1" d="M351.86,21.89c0-.58-.36-.72-.36-1.3,0-.07.29-.65.29-.72s-.22-.22-.29-.22c-.72,0-1.37.5-2.23.5-.29,0-1.01-.29-1.44-.29,0,0-.36.22-.43.29-1.08-.58-1.15-1.51-1.15-2.66s-.29-4.9,2.09-4.9c.58,0,.94.72,1.37.72.07,0,1.22-.22,1.58-.43l.22.29c-.43.79-1.22.72-1.73,1.15-.07.07-.36,1.08-.5,1.22-.43.86-2.09,1.15-2.38,1.73l1.51,1.01h3.38c.14,0,.58.72.72.72.58,0,.72-.79.72-1.22,0-.22,0-.79-.29-1.08l-1.94-1.87c.36-.58.94-.94,1.66-.94.36.07,2.45.72,2.74.72h.14c.36,0,1.22-.22,1.51-.22v-.29c-1.15-.36-2.02-1.15-2.66-1.73-.72-.5-2.74-.29-2.88-1.22,0-.07.29-.79.29-.94.14-1.01.07-2.52.36-3.6.65-2.66,7.27-3.17,9.14-3.17,1.15,0,1.3,1.15,1.3,2.23v.94c-.94,0-2.16.22-2.16.72,0,.22,0,.5.36.5h1.8c0,.5.22,2.3.22,2.59.5,3.02,6.12.65,6.12,3.46v5.11c0,2.95-6.26-1.08-6.55,5.9-.07,1.87-.43,10.51-.43,12.38-.79.14-1.08.29-1.08.94,0,1.08.79.79,1.73,1.44,1.01.79.65,1.22,1.73,1.73,2.02.94,3.67-.29,4.32,2.16,0,6.98-.65,7.92-6.48,7.92-4.25,0-8.57-2.02-10.15-5.98-.07-.36-.5-1.37-.5-1.51v-21.17c.36-.36.36-.65.36-.94ZM353.88,7.85v-.29h-1.37c.29.29,1.08.29,1.37.29ZM354.24,45c.22,0,.72,0,.72-.29,0-.72-.58-1.01-1.08-1.01-.58,0-1.22.36-1.22,1.15.72.14.94.14,1.58.14ZM356.76,21.17c.43,0,1.58,0,1.58-.65,0-.58-1.73-.65-2.16-.65s-1.08-.07-1.08.58c0,.72,1.15.72,1.66.72ZM356.76,40.68c.36-.22.86-.86.86-.79,0-.43-.36-.5-.72-.5s-.58.07-.58.58c0,.29.07.58.43.72ZM359.78,14.19c.65,0,1.66,0,1.66-.29-.22-.5-.43-.58-.65-.58-.65,0-1.01.22-1.01.86Z"/>
    </g>
  </g>
</svg>