<?xml version="1.0" encoding="UTF-8"?>
<svg id="Layer_2" data-name="Layer 2" xmlns="http://www.w3.org/2000/svg" viewBox="0 0 141.88 276.89">
  <defs>
    <style>
      .cls-1 {
        fill: #e4eaf6;
        stroke-width: 0px;
      }
    </style>
  </defs>
  <g id="Layer_1-2" data-name="Layer 1">
    <g>
      <g>
        <path class="cls-1" d="M67.32,258.73c-.19,4.5-.29,6.03-.46,6.87-.15.83-.34.96-.42,2.62-.11-1.51-.19-3.04-.24-4.56.05-3.03.25-6.87.45-9.75.2-2.87.37-4.77.51-3.86.05.59.28,4.87.15,8.68Z"/>
        <path class="cls-1" d="M66.16,248.27c0,.86-.05,1-.06,1.85l-.34-2.49.4.64Z"/>
        <path class="cls-1" d="M63.41,274.24c-1.75.31-3.06.47-4.51.67-1,.08,1.43-.29,1.28-.33-1.61.16-3.23.28-4.85.39,3.29-.25,4.89-.53,5.85-.67.46-.06.83-.11,1.16-.13.33-.01.63.01,1.06.06Z"/>
        <path class="cls-1" d="M16.13,262.06c.4-3.23.25,2.5.3,3.85-.05.68-.13,1.35-.21,1.92-.06.41-.12.63-.16.85-.04.2-.04.33-.09.34-.05,0-.16-.13-.18-.48.06-.78.11-1.45.16-2.03.03-.67.06-1.24.09-1.75.04-1.03.06-1.82.09-2.68Z"/>
        <g>
          <path class="cls-1" d="M37.85,275.84c.83-.14,3.62-.05,6.07-.12,2.46-.04,4.58-.18,4.1-.32-.42-.14-.83-.27-1.97-.33-1.58.1-3.17.18-4.76.2-11.88-.61,4.94-.22-3.01-.88-1.71-.05-2.57-.15-3.29-.13-3.88-.18-2.78,0-.53.42-5.65-.53-7.33-1.18-8.38-1.58-1.04-.47-1.45-.73-4.43-1.43-2.07-.43-3.19-.79-3.92-.99-.72-.19-.94-.16-.98-.07-.1.17.63.66-.44.38.05-.06-.17-.22-.55-.45-.19-.12-.43-.25-.65-.49-.23-.24-.29-.64-.25-1.05.21-1.6.57-3.89.79-6.57.25-2.68.47-5.76.83-8.9.36-3.13.99-6.35,1.5-9.41,1.72-11.48,5.03-24.11,9.25-37.3,1.98-5.57,5.25-12.57,8.61-19.61.03.02.06.01.09.04.06-.18.08-.3.05-.32,2.81-5.02,7.93-17.38,9.13-18.34l.54-1.29c1.45-3.14,1.52-3.17,1.43-2.77-.08.38-.31,1.15.63-.74,1.36-3.12,2.41-7.06,2.46-10.67.09-3.6-.66-6.72-1.4-8.3-.11-.54.11.15,0-.39l-.44-1.3c-.11-.32-.18-.46-.28-.7l-.21-.52c-.05-.16-.15-.35-.05-.51-.11-.25.32-.45-.3-.53.34-.06.63-.09.99-.14.53-.04,1.17-.07,1.96-.04,3.92,0,.5.29,1.89.4h.21s.06,0,.06,0h.08s.52.04.52.04l1.05.08c.71.04,1.42.08,2.13.11,1.43.06,2.88.1,4.34.1,2.91.01,5.86-.07,8.78-.22,2.92-.15,5.81-.35,8.63-.55.67-.05,1.33-.1,1.98-.15l.68-.04.33-.02c.08,0,.15,0,.23,0,.15.01.31.04.42.14.11.11.14.27.14.42,0,.15-.01.3-.03.44l-.06.49c-.25-.02-.53,2.91-.99,6.46-.47,3.58-1.03,7.78-1.36,10.27-1.78,9.82-3.19,21.33-5.81,28.51,1.08-4.37,3-11.86,2.84-12.78l-.59,1.98c-.55,2.26-1.32,5.16-2.05,7.83-.81,2.66-1.5,5.1-1.71,6.48.92-2.42,1.14-2.54,1.53-3.33-.5,2.01-.47,2.38-1.15,4.89-1.04,3.63-2.28,7.7-2.49,7.63.46-2.06,1.21-4.25,1.72-6.06-.06-.78-2.02,5.77-2.66,7.99,1.66-3.73-.85,6.66,2.37-3.71-.5,1.92-.98,3.84-1.4,5.78-.26,2.27.97-2.36,2.25-6.22,1.27-3.86,2.37-7.02,1.22-2.01-.13,1.05.43-.22-.39,3.14.74-1.75,1.79-5.45,2.11-6.99.56-1.2,1.69-4.73,2.6-8.04.87-3.32,1.59-6.38,1.93-6.49.83-4.93,1.57-8.52,2.32-12.01.75-3.5,1.44-6.88,2.11-11.35.42-2.85.61-4.55.69-5.52.08-.97.04-1.23-.03-1.22-.15,0-.46,1.03-.45-.64.19-1.44.33-2.88.42-4.3l.02-.28v-.4s.04-.79.04-.79c.03-.53-.01-1.02-.13-1.46-.12-.44-.32-.86-.67-1.17-.35-.32-.78-.45-1.21-.54-.43-.08-.91-.08-1.3-.02-.41.04-.81.08-1.21.12-.87.08-1.31.15-1.9.23-1.1.14-2.11.27-2.97.38-3.11.25-5.01.13-2.95-.09-5.82.25-11.65.31-17.41-.19-.72-.05-1.44-.14-2.16-.21-.1-.01-.31-.03-.44-.03h-.33s-.64,0-.64,0h-1.29s-2.58-.03-2.58-.03h-.32c-.11,0-.29.02-.43.02-.31,0-.59.05-.87.11-.54.11-1.01.28-1.39.55-.4.24-.75.78-.82,1.22-.09.46-.12.94,0,1.51.03.27.15.57.21.86l.28.8.28.8c.08.24.21.59.24.71.43,1.33.76,2.68,1,4.03.47,2.71.54,5.46.07,8.12-.23,1.33-.55,2.65-1.03,3.92-.23.64-.48,1.27-.76,1.89l-.91,1.93c-2.53,5.34-5.06,10.68-7.57,15.99-4.35,8.49-7.82,16.7-11.65,25.51l.64-1.46c.14-.19-.25.97-.53,1.89.63-1.45,1.29-2.84,1.93-4.15-1.07,2.63-2.04,5.31-2.89,7.97-.25,1.55-1.46,5.37-2.52,9.34-1.08,3.96-2.04,8.07-2.23,10.05-1.73,7.56-2.15,9.77-2.67,11.98-.24,1.11-.5,2.22-.84,4.02-.17.9-.37,1.97-.61,3.3-.24,1.33-.5,3-.71,4.97-.32,4.25-.31,8.83-.63,13.45l-.08,1.12c-.02.48-.03,1.01.04,1.49.09.47.26.94.57,1.33.31.38.69.68,1.14.91.46.23.95.41,1.36.55l.89.32.89.33c.32.11.65.22.97.31,1.28.38,2.47.62,3.71.91,1.22.29,2.47.5,3.7.76,3.59.67,6.88,1.18,6.27,1.23,2.18.23,4.85.39,7.53.49,2.68.07,5.38.05,7.64-.03,19.14-1.9-2.51-.19-9.73-.98Z"/>
          <path class="cls-1" d="M74.15,141.77c-.68.34,4.05.08,5.62.04l.25-.03.09-.02.19-.04.4-.08c.15-.09.21.06.33.09.09.04.27-.05.31-.53-.21-.13-.29,0-1.65.14-1.91.19-4.05.35-5.54.43Z"/>
          <path class="cls-1" d="M50.72,153.36c-.09-.26-.19-.51-.28-.76.06,2.32-.18,4.67-.74,6.94.12-.06.37-.93.61-2.13.24-1.19.37-2.72.41-4.05Z"/>
          <path class="cls-1" d="M67.22,221.08c.97-6.02,1.66-8.37,2.97-14.66l-.76,1.07c-1.6,6.07-3.05,12.57-3.86,20.05,0,2.55.31.3.7-2.27.39-2.57.89-5.44.95-4.2Z"/>
          <path class="cls-1" d="M70.48,208.27c-.97,5.46-2.04,11.37-2.76,17.13-.71,5.75-1.1,11.34-.88,16.02.65-1.27.81-5.92,1.19-11.12.36-5.2.96-10.96,1.78-14.41.69-4.61,1.12-7.35,2.42-13.08.87-4.24-1.11,2.57-1.75,5.45Z"/>
          <path class="cls-1" d="M66.19,244.34c-.03,1.21,0,2.6.03,3.3.09.87.21-1.39.31-2.42.02-1.21-.12-4.34-.33-.87Z"/>
        </g>
      </g>
      <g>
        <path class="cls-1" d="M114.15,204.11c.81,4.26.89,5.76.87,6.58-.03.82-.18.97-.05,2.56l-.92-4.28c-.48-2.86-1.16-6.47-1.67-9.16-.52-2.69-.84-4.47-.47-3.67.19.53,1.53,4.38,2.24,7.98Z"/>
        <path class="cls-1" d="M110.48,194.76c.21.78.2.93.41,1.71l-.95-2.18.55.47Z"/>
        <path class="cls-1" d="M116.16,219.58l.61,4.04c.09.94-.3-1.34-.33-1.21l.44,4.57c-.65-6.19-1.03-6.05-.72-7.4Z"/>
        <path class="cls-1" d="M106.43,264.06c-3.02.36,2.24-.82,3.41-1.21,2.48-.46,4.73-.67,2.77-.11-3.29.63-4.6,1-6.18,1.32Z"/>
        <g>
          <path class="cls-1" d="M118.8,243.39c-.21-.77-.42-3.38-.64-5.69-.23-2.31-.47-4.3-.59-3.84-.11.4-.21.8-.2,1.88.2,1.49.39,2.97.56,4.47.52,11.23-.71-4.63-.6,2.92.11,1.62.14,2.43.22,3.12.29,3.67.35,2.61.47.45.17,5.36-.15,7.03-.41,8.07-.27,1.04-.51,1.47-.67,4.37-.02.5-.04.94-.05,1.35-.01.38-.04.65-.09.91-.1.53-.38.86-.61,1.04-.47.36-.66.44-.62.55.03.19.94.15-.08.55-.12-.58-14.37,1.73-25.81,3.93-5.37,1.18-11.06,2.21-17,3.3-.74.14-1.49.27-2.24.41l-1.13.21-.57.11c-.18.03-.29.05-.44.06-.27.02-.59-.03-.76-.27-.17-.24-.18-.53-.21-.81-.03-.65-.06-1.31-.09-1.97-.12-3.16-.15-6.39-.19-9.68.1-2.81.21-6.05.33-9.52.09-3.49.16-7.13.41-10.8.03,0,.06-.01.09,0-.02-.18-.04-.29-.07-.29.36-2.68.67-7.17,1.12-11.14.45-3.97.99-7.41,1.44-7.99l.15-1.31c1.04-6.47.23.04,1.01-3.65.5-2.98,1.25-6.44,2.04-9.41.8-3,1.6-5.65,1.77-7.23.18-.46.02.17.2-.29l1.35-4.74c-.04-.36.1-1.36-.29-.61.34-1.09.48-2.1.98-3.68,1.12-3.99.41-.4.93-1.81,1.31-5.07,2.47-10.55,3.45-15.99.95-5.42,1.88-10.78,2.73-15.69.24.04.76-2.78,1.16-6.24.2-1.73.36-3.62.47-5.38.02-.44.05-.87.07-1.29,0-.23.02-.45.02-.66,0-.1,0-.19,0-.28,0-.05,0-.1.02-.15.02-.1.09-.17.17-.2.07-.02.15-.02.22-.01h.39s.4-.02.4-.02l.77-.05c1.03-.07,2.08-.17,3.12-.28,2.09-.22,4.2-.51,6.26-.83,2.07-.32,4.09-.68,6.03-1.04.9-.18,1.77-.35,2.57-.51.17-.08.08.1.05.2-.04.11-.08.22-.13.33-.09.21-.2.41-.32.57.02-.14.05-.29.07-.44l.04-.22c0-.07.07-.19-.07-.13-.26.06-.51.11-.75.15-.52.09-1.02.17-1.46.25-1.62.27-2.82.48-3.11.65l1.99-.14c.49-.07,1.01-.14,1.55-.21l.41-.06c.12-.02.34-.05.29-.04h.09c.08.02.17.03.25.04,0,.08-.08.2-.08.28v.07s0,0-.02.06c-.06.12-.11.23-.16.35-.21.43-.42.92-.56,1.29.73-1.16,1.12-1.65,1.17-1.58.14-.07.26-.13.4-.26-.04.16-.08.28-.11.39-.02.07-.02.09-.07.21l-.18.42c-.29.62-.59,1.29-1.12,2.43-1.6,3.45-2.61,7.42-2.85,7.36.41-2.01,1.17-4.13,1.89-5.89.01-.38-.68.99-1.29,2.77-.63,1.78-1.18,3.94-1.45,5.01.73-1.84.6-.21.63.59.02.4.07.6.27.07.22-.53.54-1.8,1.36-4.27-.49,1.84-.88,3.7-1.19,5.56-.09,2.18.73-2.31,2.04-5.97.63-1.83,1.38-3.43,1.75-3.99.38-.56.24-.15-.48,2.15-.16.98.39-.19-.43,2.93.36-.82.8-2.07,1.27-3.26.46-1.19.96-2.32,1.23-2.99.19-.23.41-.57.69-1.01.15-.24.27-.44.47-.78.21-.37.43-.78.64-1.21.42-.86.8-1.81,1.1-2.77.15-.49.29-.98.44-1.47l.21-.77.05-.19c.02-.07.04-.14,0-.15l-.1-.18c-2.37.44-4.73.86-6.51,1.11-1.22.15-2.06.19-2.17.05-4.57.96-8,1.26-11.32,1.44-.83.04-1.66.07-2.5.11l-.63.02c-.21,0-.4.01-.74.04-.62.05-1.22.06-1.89.15-.69.14-1.35.45-1.82,1.03-.46.55-.67,1.33-.69,2-.06.65-.12,1.32-.18,2-.04.49-.08,1-.12,1.53-.46,5.32-.58,6.26-.4,6.25.15,0,.46-.95.44.61-.82,5.32-1.41,10.72-1.79,14-.46,2.93-1,4.65-.75,2.7-1.05,5.42-2.25,10.83-3.72,16.16-1.42,5.33-3.3,10.55-4.92,15.99-.81,2.71-1.55,5.47-2.15,8.28-.58,2.76-1.11,5.53-1.6,8.3-.97,5.55-1.73,11.14-2.23,16.74-.6,4.54-.78,8.97-.83,13.37-.03,4.33-.2,8.61-.63,13.09l.14-1.48c.08-.21.08.93.1,1.84.16-1.47.32-2.89.47-4.26-.11,2.64-.2,5.32-.19,7.96.12.74.18,2.05.25,3.68.03.81.07,1.7.1,2.63.05.69.09,1.4.14,2.12.07.76.31,1.46.74,2.02.46.59,1.19.89,1.89.96.18.03.37.02.55.03.14-.01.25-.04.37-.07l.71-.14c.95-.19,1.86-.38,2.72-.55,1.71-.36,3.18-.71,4.14-1.01,14.57-2.66,8.41-1.27,23.21-3.92,3.94-.85,8.27-1.77,12.76-2.74,1.12-.23,2.26-.47,3.4-.71l.43-.09c.13-.02.45-.1.66-.17.47-.14.91-.35,1.31-.62.81-.54,1.34-1.41,1.55-2.36.12-.47.16-1.02.18-1.32l.05-.88.1-1.77c.06-1.18.1-2.37.13-3.55.09-3.43.22-6.56.34-6-.11-4.12-.5-10-.92-14.22-2.54-17.88-.39,2.38-.22,9.2Z"/>
          <path class="cls-1" d="M83.59,166.2c.17.7.99-3.67,1.34-5.13l.22-1.98c.65-4.94.33-5.16-.28-2.06.08,1.19-.77,6.41-1.28,9.16Z"/>
          <path class="cls-1" d="M74.1,205.03l-.11-.69c-.47,1.94-.82,3.86-1.18,5.86.22-.13.74-3.01,1.3-5.17Z"/>
          <path class="cls-1" d="M103.21,169.99c-.55-2.83-.8-4.84-1.05-6.89-.12-1.02-.25-2.06-.29-3.23-.06-1.17.17-2.45.4-3.96l-.69,1.05c-.15.71-.3,1.52-.33,2.31-.04.79,0,1.58.06,2.37.14,1.55.32,3.09.54,4.69.44,3.19,1.06,6.49,1.91,9.95.83,2.27.39.16-.09-2.25-.48-2.41-.94-5.14-.48-4.05Z"/>
          <path class="cls-1" d="M102.7,157.66c-.16,1.25-.06,2.5.13,3.82.22,1.34.44,2.69.66,4.05.47,2.72,1.01,5.46,1.61,8.14,1.21,5.36,2.64,10.47,4.19,14.65.25-1.35-.97-5.62-2.3-10.39-1.35-4.76-2.68-10.07-3-13.4-.4-2.17-.8-3.91-.8-5.59,0-.45.03-.8.1-1.33.07-.5.13-1.01.2-1.56.15-1.08.33-2.27.59-3.62.32-2,.08-1.4-.31.06-.39,1.46-.83,3.79-1.07,5.16Z"/>
          <path class="cls-1" d="M109.49,191.16c.29,1.11.69,2.37.89,3,.31.77-.16-1.33-.34-2.3-.29-1.11-1.32-3.91-.55-.71Z"/>
        </g>
      </g>
      <g>
        <path class="cls-1" d="M40.72,33.97c2.49-1.06,3.37-1.42,3.91-1.5.53-.09.69.02,1.64-.36-.79.51-1.58,1.01-2.39,1.49-1.67.81-3.84,1.72-5.5,2.21-.21.06-.41.12-.6.17-.09.03-.18.05-.27.08-.08.02-.1.02-.16.03-.25.05-.93.06-1.54.72-.29.32-.41.68-.46.9-.05.22-.07.39-.08.48-.02.18-.1.1-.1-.37.01-.14.02-.45.25-.89.23-.45.71-.83,1.08-1,.36-.17.68-.25.76-.3,0-.02.3-.16.49-.25.87-.4,1.94-.94,2.99-1.39Z"/>
        <path class="cls-1" d="M37.16,39.32c-.28-.12-.49-.25-.67-.47-.18-.21-.34-.57-.26-1.02,0,.23.04.46.16.67.13.21.31.33.47.4.32.14.58.15.83.2-.17.07-.33.15-.52.22Z"/>
        <path class="cls-1" d="M49.71,29.79l2.19-1.48c.53-.31-.68.59-.58.58l2.57-1.53c-3.44,2.14-3.21,2.38-4.17,2.43Z"/>
        <path class="cls-1" d="M69.19,4.8c.76.69.14.4-.3.21-.04-.04-.04.04-.06.09l-.03.15c-.02.1-.04.19-.06.28-.04.17-.06.32-.07.41-.17.4-.35.67-.56.99-.23.36-.32.32-.18-.28.21-.53.36-.91.48-1.27.06-.18.11-.34.16-.5.02-.08.05-.16.07-.23l.03-.11s.01-.04.02-.05l.04.02c.16.1.3.19.45.29Z"/>
        <g>
          <path class="cls-1" d="M60.81,19.9c-.1.5-.96,1.89-1.89,2.98-.93,1.1-1.85,1.95-1.52,1.89.28-.06.55-.12,1.11-.54.62-.74,1.2-1.49,1.72-2.29,1.1-1.41,1.45-2.03,1.57-2.11.11-.09-.05.33-.28.81-.46.94-1.12,2.17.41.22.55-.92.8-1.39.95-1.82.89-2.25.49-1.64-.26-.48,1.46-3.11,1.83-4.13,2.3-4.71.41-.59.75-.84,1.14-2.69.56-2.49.67-3,.46-3.08-.18-.07-.54.32-.43-.31.13.06.43-.38.87-1.18.21-.4.45-.85.73-1.37.12-.25.26-.5.39-.77.06-.13.13-.27.2-.4l.1-.2.05-.1s.01-.05.03-.04l.05.04c.31.25.63.5.96.77.34.23.67.47,1.01.69.75.45,1.75.99,2.73,1.36,1.99.81,4.2,1.25,6.28,1.4,1.83.07,3.75.02,5.63-.11.78-.04,1.5-.14,2.22-.15.17.01.38.07.46.25.08.17.05.37.01.55-.09.36-.18.73-.27,1.09-.1.38-.17.66-.32,1.12-.07.23-.15.45-.24.67l-.27.73c-.36.98-.69,1.97-.97,2.99-.57,2.04-.98,4.16-1.23,6.31-.34,1.82-.66,3.94-.93,6.2-.28,2.27-.42,4.75-.28,7.22-.03,0-.06.01-.09,0,.03.12.07.19.1.19-.1,1.83.35,4.85,1.03,7.45.66,2.6,1.41,4.8,1.24,5.32l.35.81c1.63,4.09-.25.09.56,2.5.78,1.84,1.7,3.99,2.51,5.91.76,1.86,1.4,3.53,2.03,4.38.07.31-.1-.07-.03.24l1.18,2.97c.2.16.58.71.54.16.24.71.61,1.27.92,2.29.9,2.55-.16.4.05,1.36.31.8.62,1.61.94,2.43.15.38.3.75.45,1.13l.33.8c.08.2.19.41.25.62.08.21.01.49-.23.55-.27.11-1.32.14-2.08.21-1.63.13-3.25.24-4.82.33-1.59.1-3.02.15-4.76.2-.02-.24-1.93-.21-4.23.09-2.3.28-4.98.9-6.54,1.35-.4.08-.8.17-1.2.27l-.88.23-.21.06s-.09.02-.14.02c-.1,0-.19-.04-.25-.11-.03-.04-.06-.07-.09-.12l-.19-.34-.42-.72c-.42-.71-.83-1.42-1.26-2.11-1.69-2.76-3.39-5.24-4.49-7.37,1.81,2.2,4,6.61,4.56,6.93l-.51-1.22c-1.37-2.63-3.69-6.71-4.94-7.96.71,1.47.62,1.66.78,2.2-.77-1.05-1.01-1.16-1.93-2.49-1.33-1.97-2.7-4.16-2.49-4.3.79,1.03,1.48,2.25,2.15,3.23.47.21-1.82-3.32-2.52-4.53.83,2.41-3-2.92.32,2.87l-2.12-2.99c-2.01-2.03,6.04,10.19,2.03,5.22-.5-.45-.18.37-1.49-1.34.46,1.11,1.79,3.07,2.42,3.81.25.8,1.48,2.72,2.55,4.52,1.08,1.8,1.99,3.49,1.78,3.73.87,1.25,1.53,2.39,2.09,3.45.33.62.67,1.31.98,1.95.4.72,1.05,1.34,1.87,1.53.77.21,1.72,0,2.39-.18l.56-.14.41-.09c.27-.05.54-.11.81-.16,1.12-.21,2.28-.43,3.58-.67,3.37-.58,3.97-.66,3.93-.82-.03-.14-.68-.26.29-.55.88-.07,1.74-.14,2.58-.21.87-.08,1.62-.13,2.52-.26,1.73-.23,3.23-.47,4.35-.65,2.05-.19,3.45-.1,2.09.11l3.02-.18.76-.05c.25-.01.5-.01.8-.14.54-.2,1.08-.51,1.35-1.13.12-.29.16-.57.17-.86.01-.29-.01-.58-.13-.92l-.28-.99-.14-.5-.16-.43c-.47-1.27-.7-1.96-1-2.84-1.15-3.42-2.23-6.94-3.55-10.44-.65-1.74-1.41-3.52-2.18-5.18-.75-1.62-1.44-3.26-2.06-4.91-1.26-3.3-2.2-6.68-2.75-10.09-.23-2.8-.43-5.48-.29-8.14.08-1.3.23-2.71.44-4.09.21-1.38.49-2.75.9-4.1l-.26.9c-.09.12-.01-.6.05-1.16-.27.89-.53,1.77-.79,2.61.27-1.67.58-3.33.9-4.94-.05-.95.45-3.27,1.22-5.55.38-1.18.84-2.05,1.26-4.25.24-.93.29-1.76.17-2.3-.11-.53-.31-.97-.68-1.25-.3-.29-.62-.42-.93-.52-.31-.1-.74-.07-1.09-.11-.36-.02-.7-.06-1.04-.05-.35.03-.68.05-1,.07-.31.02-.6.04-.88.06-.18,0-.35,0-.51.01-.33,0-.62.02-.89.01-1.07,0-1.73-.06-2.38-.12-.65-.07-1.31-.14-2.33-.31-1.02-.17-2.43-.4-4.42-1.16-.78-.23-1.56-.55-2.34-.93-1.59-.88-3.1-1.97-4.6-2.98-.57,1.52-1.15,3.06-1.73,4.62l-.41,1.08-.25.69c-.16.47-.32.95-.49,1.42-.31.97-.61,1.97-.83,3.02-.21.98-.4,1.82-.67,2.72-.6,1.99-1.59,3.58-1.55,3.23-.47,1.11-1.16,2.41-2,3.61-.84,1.21-1.83,2.31-2.74,3.15-.93.94-1.68,1.6-2.21,2.04-.52.44-.85.73-.96.87-.23.28.44-.04,1.38-.61.96-.59,2.24-1.56,3.35-2.69,1.12-1.11,2.05-2.37,2.61-3.25Z"/>
          <path class="cls-1" d="M90.42,73.55c.22-.3-2.22-.21-3.02-.26l-1.03.17c-.33.04-.62.08-.87.12-.32.04-.59.08-.81.11-.44.08-.7.15-.78.22-.17.13.34.2,1.39.22.72-.29,3.53-.51,5.12-.58Z"/>
          <path class="cls-1" d="M88.44,57.14l.42.27c-.27-.58-.55-1.15-.84-1.73l-.9-1.83c-.13.17.76,2.01,1.32,3.29Z"/>
          <path class="cls-1" d="M50.63,49.09c2.32,3,2.87,4.45,5.12,7.74v-.9c-1.86-3.37-3.92-7.06-7.22-10.5-1.3-.96-.35.11.68,1.37,1.04,1.26,2.09,2.74,1.43,2.29Z"/>
          <path class="cls-1" d="M54.57,56.3c-2.04-2.78-4.08-5.84-6.44-8.5-2.33-2.66-4.99-4.88-7.59-6.04.34.91,2.63,2.4,4.96,4.51,2.35,2.06,4.69,4.72,5.78,6.59,1.75,2.23,2.73,3.68,4.87,6.66,1.69,2.11-.64-1.64-1.58-3.22Z"/>
          <path class="cls-1" d="M39.3,40.37c-.63-.38-1.43-.68-1.82-.85-.52-.14.68.55,1.19.9.62.36,2.41,1.08.62-.05Z"/>
        </g>
      </g>
      <g>
        <path class="cls-1" d="M82.89,132.31c.22-4.85.66-3.32.94-5.1l.14,2.45c-.08,1.62-.19,3.69-.3,5.24-.03.36-.05.8-.09.99-.04.21-.11.52-.12.88-.03.35.09.8.14.95.06.18-.05.11-.23-.25-.11-.23-.21-.79-.22-1.16-.01-.19-.02-.36-.04-.44-.02-.08-.05-.36-.07-.56-.1-.87-.18-1.96-.15-2.99Z"/>
        <path class="cls-1" d="M85.66,137.98c-.29,0-.52-.07-.73-.19-.21-.11-.46-.36-.57-.74.13.37.59.67.89.65.31.02.55-.07.78-.14-.11.14-.22.29-.38.42Z"/>
        <path class="cls-1" d="M83.58,123.63c-.04-.75-.12-1.49-.19-2.24,0-.52.17.74.21.67,0-.84-.04-1.69-.09-2.53.23,3.42.49,3.36.06,4.1Z"/>
        <path class="cls-1" d="M77.52,94.28c-.5-1.71.89,1.09,1.28,1.7.52,1.35.78,2.64.19,1.62-.69-1.78-1.09-2.46-1.47-3.31Z"/>
        <g>
          <path class="cls-1" d="M81.26,110.71c.29.36.72,1.75,1.04,2.99.33,1.24.57,2.32.69,2.04.1-.24.2-.48.16-1.09-.23-.81-.5-1.6-.77-2.4-.74-3.05-.5-2.44-.1-1.61.37.84.83,1.95.43-.15-.27-.88-.4-1.32-.57-1.67-.8-1.93-.7-1.32-.52-.12-.92-2.86-1.05-3.8-1.01-4.44.03-.64.18-.96-.41-2.5-1.74-4.17-1.31-1.36-1.9-2.29.28-.09-.19-2.08-1.12-4.83-.95-2.74-2.55-6.12-3.99-9.09-.73-1.34-1.5-2.92-1.9-3.95-.1-.28-.19-.64.03-.9.22-.24.54-.34.84-.45.31-.09.62-.18.93-.28.4-.1.79-.21,1.19-.31,3.29-.81,6.83-1.18,10.5-1.66,1.58-.08,3.42-.17,5.37-.27,1.97-.11,4.03-.29,6.1-.44,0,.03.01.06,0,.09.1-.03.16-.07.16-.1,1.54.09,4.07-.16,6.31-.29,2.24-.13,4.2-.15,4.57.18l.72-.06c3.6.05-.01.23,2.05.45,1.67.04,3.64.36,5.47.52.46.04.94.08,1.2.09.23.01.28.02.41.04.24.05.41.18.59.28,0,.12-.07,0-.08.12.03.08.05.16.07.25l.07.58.15,1.34c.15.17.35.71.47.25.03.64.23,1.18.22,2.1.08,2.3-.28.29-.37,1.12.16,2.87.24,6.04.17,9.07-.12,3.07-.33,6.12-.69,8.85-.25-.02-.47,1.55-.71,3.43-.23,1.89-.53,4.09-.73,5.39-.65,2.55-1.13,5.32-1.77,7.89-.63,2.57-1.43,4.96-2.42,6.7.69-2.25,2.31-5.95,2.08-6.5l-.47.97c-.82,2.27-2.53,5.69-2.84,7.14.75-1.13.94-1.15,1.26-1.5-.36,1.03-.31,1.25-.85,2.5-.83,1.82-1.97,3.7-2.18,3.57.45-.99,1.08-1.99,1.51-2.89-.04-.23-.46.45-.96,1.29-.25.43-.53.89-.78,1.31-.21.34-.27.35-.35.41.21.02.36.04.4.17.05.13.03.31,0,.45-.02.14-.03.26.17.23.1-.02.25-.08.46-.27.11-.11.2-.2.36-.44.15-.23.32-.49.52-.79-.22.44-.48,1-.67,1.3-.22.34-.49.59-.84.77-.39.29-.1.36.5.1.29-.14.63-.4.91-.8.28-.41.59-.91.87-1.36,1.14-1.84,2.05-3.4,1.1-.8-.11.57.41,0-.34,1.73.7-.79,1.6-2.67,1.84-3.49.51-.54,1.36-2.36,2.07-4.08.71-1.72,1.29-3.32,1.61-3.32.61-2.67,1.15-4.57,1.73-6.43.56-1.86,1.14-3.67,1.52-6.11.47-3.1.39-3.65.25-3.65-.15,0-.4.54-.48-.37.49-3.07.34-6.19.28-8.05.07-1.68.33-2.69.38-1.57l.19-2.38.1-2.39c.06-1.58.1-3.17.11-4.76.01-1.59,0-3.2-.07-4.81-.04-.83-.06-1.54-.15-2.56-.12-1.34-.73-2.66-1.89-3.33-.56-.35-1.22-.53-1.9-.6-.63-.06-1.07-.07-1.43-.1l-2.31-.19c-1.56-.14-3.17-.3-4.82-.36-1.7-.06-3.26,0-4.87.04-1.6.05-3.19.13-4.77.24-2.59-.02-5.06.25-7.51.49-2.38.23-4.8.35-7.36.2l.85.05c.13.06-.52.14-1.03.21.85.06,1.66.13,2.44.21-1.49.06-3.01.14-4.51.29-.81.32-2.97.54-5.2.94-1.11.19-2.24.45-3.21.73-.48.15-.93.3-1.32.44-.53.22-1.06.46-1.4.64-.81.22-1.39.61-1.81,1.04-.44.44-.63,1.05-.63,1.54-.05.99.45,1.89.7,2.62.47,1.15.66,1.66.88,2.24.43,1.14.91,2.31,2.64,6.04,1.05,1.95,2.1,3.99,3.09,6.32,1.01,2.32,2.01,4.73,2.84,7.19.62,1.78.92,3.47.72,3.2.73,2.11,1.58,5.18,2.01,7.42.59,2.36.81,3.48.97,3.74.14.27.17-.32.1-1.32-.06-1-.26-2.42-.51-3.82-.27-1.39-.59-2.76-.84-3.66Z"/>
          <path class="cls-1" d="M117.5,95.72c-.26-.38-.48,2.1-.65,2.91l.02,1.1c-.08,2.74.22,2.86.51,1.14-.19-.65,0-3.58.11-5.15Z"/>
          <path class="cls-1" d="M115.4,78.64l.4-.25c-1.18-.04-2.35-.1-3.48-.16.07.18,1.73.31,3.08.42Z"/>
          <path class="cls-1" d="M100.11,135.53c3.21-.43,4.55-.37,7.89-1.18l-.74-.36c-3.3.47-6.8.68-10.74,1.16-2.6.86,4.81-.25,3.59.37Z"/>
          <path class="cls-1" d="M107.23,135.23c-5.79,1.72-12.86,1.71-17.77,2.95,1.5,1.07,10.02-1.05,13.86-1.38,1.24-.28,2.23-.52,3.29-.81.53-.14,1.08-.29,1.69-.45.51-.13,1.57-.37,2.35-1.11.55-.58.59-.84.53-.8-.08.02-.33.32-.78.64-.44.32-1.09.59-1.7.7-.54.1-1.07.19-1.46.26Z"/>
          <path class="cls-1" d="M87.84,137.78c-.65.05-1.38.18-1.75.25-.45.14.76.12,1.32.14.65-.05,2.29-.47.43-.39Z"/>
        </g>
      </g>
      <g>
        <path class="cls-1" d="M72.73,83.91c1.72,4.13.72,3.06,1.15,4.67l-1.08-2c-.57-1.39-1.3-3.15-1.78-4.48-.12-.33-.22-.63-.32-.91-.13-.35-.32-.74-.62-1.05-.3-.32-.62-.49-.72-.56-.11-.07-.04-.11.28,0,.19.06.73.38,1.07.82.17.21.32.44.44.64.09.15.19.31.3.47.42.68.91,1.54,1.28,2.41Z"/>
        <path class="cls-1" d="M67.96,80.4c.5-.06.63-.1,1.27.16-.72-.2-1.15.12-1.51.31.07-.16.14-.32.24-.47Z"/>
        <path class="cls-1" d="M75.43,91.54l.91,1.91c.17.46-.4-.6-.41-.52l.83,2.24c-1.18-3.02-1.5-2.82-1.32-3.64Z"/>
        <path class="cls-1" d="M82.39,118.44c0,1.58-.53-1.14-.83-1.71-.21-1.27-.28-2.46.13-1.46.34,1.69.55,2.36.69,3.18Z"/>
        <g>
          <path class="cls-1" d="M80.38,102.99c-.59-.65-2.13-5.04-2.28-4.47-.06.24-.12.48.01,1.04.36.69.69,1.4,1.04,2.1,1.91,5.53-1.26-2.12-.2,1.67.3.79.46,1.18.63,1.5.8,1.74.7,1.19.51.08,1.82,5.28.18,3.56,1.04,6.44,1.16,3.96,1.1,1.36,1.56,2.28-.32.05-.07,1.94.12,4.56.2,2.63.29,6.01.31,9.04.08,1.34.09,2.73.07,4.15-.04,1.37-.08,2.78-.12,4.22-.02.3.01.62-.1.91-.1.31-.45.43-.75.46-.72.07-1.45.13-2.19.2-1.73.16-3.48.34-5.27.57-2.91.14-6.72.22-10.54.27,0-.03,0-.06,0-.09-.09.03-.15.06-.15.09-.71-.1-1.64-.1-2.63-.12-1.01-.04-2.1-.08-3.13-.12-2.07-.1-3.89-.23-4.21-.58l-.69.02c-3.47-.11.02-.25-1.98-.48-.83-.02-1.71-.04-2.61-.06-.45,0-.91-.01-1.36-.02-.23,0-.45,0-.68,0-.3,0-.24,0-.34,0-.13,0-.25.01-.35-.04-.11-.05-.16-.15-.22-.23-.03-.04-.06-.08-.09-.12-.04-.06-.05-.03-.14-.18-.16-.22-.31-.41-.46-.56-.08-.24.1.04.02-.2l-1.18-2.24c-.2-.09-.56-.49-.52-.04-.23-.54-.61-.93-.9-1.73-.86-1.94.16-.35-.04-1.09-2.29-4.82-4.43-10.57-5.77-15.5.24-.08-.13-1.5-.65-3.2-.27-.84-.55-1.74-.82-2.58-.13-.4-.26-.78-.38-1.14-.04-.12-.07-.21-.08-.3.03-.17.16-.3.3-.37.35-.17.7-.35,1.06-.52,1.22-.64,2.39-1.4,3.46-2.19,2.15-1.58,3.94-3.28,5.5-4.45-.73.9-1.94,1.94-3.01,2.77-1.07.83-2.01,1.47-2.1,1.74.33-.16.66-.32.98-.49,2.09-1.31,5.13-3.76,5.85-5.04-1.09.79-1.28.72-1.7.91.71-.79.74-1.01,1.64-1.98,1.31-1.41,2.76-2.8,2.94-2.63-.65.79-1.48,1.52-2.12,2.21-.04.44,2.28-1.94,3.12-2.64-1.82.94,1.63-2.93-2.36.53l1.94-2.15c.59-.98-1.18.56-2.66,1.9-1.49,1.34-2.74,2.41-1.21.38.24-.49-.38-.13.71-1.46-.83.52-2.09,1.91-2.54,2.52-.6.29-1.89,1.52-3.15,2.55-1.26,1.03-2.5,1.86-2.75,1.66-1.76,1.56-3.32,2.32-4.89,2.89-1.17.43-2.61,1.26-2.92,2.76-.18.72-.1,1.52.12,2.36.13.52.27,1.05.44,1.62,1.65,5.48.96,1.78,1.78,3.24.71,2.75,1.93,5.33,2.65,6.9.53,1.45.65,2.41.21,1.48,1,3.17,2.1,6.32,3.35,9.44.63,1.56,1.28,3.11,1.98,4.64l.53,1.15.27.57.45.91c.33.63.76,1.17,1.36,1.52.3.17.63.28.96.33.33.05.7.02,1.04.04l.79-.06.44-.02.88-.02c.59,0,1.19,0,1.78.01,1.2.03,2.41.1,3.64.18,2.47.16,4.94.36,7.51.44,1.26.13,2.44.11,3.58.1,1.15-.02,2.3-.07,3.43-.13,2.28-.1,4.54-.2,6.89-.01l-.78-.06c-.12-.06.48-.13.94-.2-.77-.08-1.52-.16-2.25-.24,1.38-.04,2.78-.1,4.14-.22.61-.25,2.03-.4,3.63-.56l.3-.03.39-.04.93-.12.93-.12c.33-.07.62-.18.9-.32.55-.27,1.01-.77,1.21-1.3.24-.51.21-1.13.27-1.66,0-.24-.02-.48-.03-.7-.01-.23-.02-.45-.04-.54-.03-.24-.06-.45-.1-.62.13-3.78.22-4.91.31-6.03.07-1.13.24-2.25.09-6.2-.23-2.1-.61-4.41-1.17-6.79-.57-2.35-1.23-4.73-1.91-7.12-.51-1.72-.83-3.34-.64-3.09-.72-2.04-1.83-4.91-2.67-6.95-4.15-8.47-.24,1.41.89,4.78Z"/>
          <path class="cls-1" d="M39.35,120.13c.38.22-.3-1.96-.43-2.72l-.42-.93c-.92-2.37-1.24-2.36-.88-.77.41.49,1.29,3.05,1.73,4.42Z"/>
          <path class="cls-1" d="M46.52,136.1l-.03.13c-.01.05-.03.1-.05.15h.04s.08-.03.08-.03l.33-.03.79-.06c.52-.03,1.05-.06,1.57-.07-.04-.09-.47-.13-1.05-.14-.29,0-.61,0-.95.01-.29.01-.83.04-.73.03Z"/>
          <path class="cls-1" d="M56.37,87.21c-2.37,1.79-3.44,2.4-5.66,4.65l.78-.05c2.37-1.95,4.99-3.81,7.96-5.76.89-.85-.1-.4-1.17.26-1.08.63-2.24,1.45-1.92.9Z"/>
          <path class="cls-1" d="M50.85,90.77c1.83-2.07,4.16-4.02,6.59-5.64,2.42-1.65,4.9-2.96,7-4.16-.83-.33-3.13.6-5.38,2.12-2.27,1.49-4.45,3.48-5.93,4.51-1.7,1.65-2.63,2.69-4.62,4.85-1.34,1.7,1.23-.72,2.34-1.68Z"/>
          <path class="cls-1" d="M66.03,80.99c.59-.17,1.24-.42,1.57-.55.39-.22-.72.02-1.25.09-.61.15-1.99.96-.31.46Z"/>
        </g>
      </g>
      <g>
        <path class="cls-1" d="M25.79,211.71c-1.49,4.35-2.05,5.83-2.45,6.6-.4.77-.62.84-1.2,2.45.36-1.52.74-3.03,1.14-4.55.94-2.96,2.24-6.67,3.33-9.38,1.08-2.71,1.91-4.44,1.73-3.53-.16.58-1.33,4.72-2.55,8.4Z"/>
        <path class="cls-1" d="M28.02,201.26c-.3.82-.4.93-.7,1.75l.56-2.49.15.75Z"/>
        <path class="cls-1" d="M20.63,227.48c-.32,1.42-.62,2.84-.91,4.27-.25.98.19-1.46.12-1.33-.4,1.59-.79,3.18-1.15,4.78,1.46-6.5,1.18-6.48,1.94-7.71Z"/>
        <path class="cls-1" d="M3.31,259.51c.01-1.49.12-1.13.25-.16.03.24.07.52.11.82.04.27.08.69.12.81.06.36.28.66.52.76.07.04.27.19.37.25,2.1,1.91,3.7,3.61,1.97,2.32-.56-.5-1.05-.94-1.48-1.32-.22-.19-.43-.37-.63-.54-.18-.15-.35-.29-.51-.42-.41-.26-.54-.69-.59-1.05-.06-.41-.1-.98-.14-1.47Z"/>
        <g>
          <path class="cls-1" d="M16.4,252.69c-.09-.84.19-3.63.51-6.09.31-2.46.63-4.58.38-4.13-.21.39-.43.77-.69,1.9-.18,1.6-.33,3.2-.47,4.81-1.55,11.98.13-5.05-1.14,2.98-.18,1.75-.26,2.62-.28,3.36-.19,3.97.01,2.83.4.55-.51,5.74-.83,7.51-1.15,8.62-.15.53-.31.99-.43,1.5-.06.27-.12.57-.17.96-.03.2-.05.41-.1.66-.05.23-.19.56-.53.56-1.68-.28-2.57-.89-3.27-1.19-.66-.33-.87-.39-.94-.31-.13.15.43.79-.5.27.09-.09-.36-.55-1.15-1.35-.79-.79-1.89-1.98-3.3-3.3-.25-.21-.46-.48-.55-.81-.1-.34-.1-.65-.12-1.06-.02-.8-.04-1.63-.07-2.49-.03-1.72-.04-3.57,0-5.47.06-3.8.29-7.84.6-11.6.17-2.95.44-6,.93-9.07.49-3.08,1.19-6.21,2.06-9.37,1.73-6.32,4.14-12.75,6.69-19.37,2.4-5.57,5.66-12.78,9.41-19.77.03.02.06.02.08.04.07-.18.1-.3.07-.32,1.54-2.48,3.86-6.74,6.12-10.42,2.23-3.7,4.31-6.82,4.99-7.2l.75-1.19c4.07-5.69.18.12,2.68-3.01.48-.64,1-1.29,1.55-1.95.6-.74,1.22-1.54,1.72-2.41,1.05-1.72,1.72-3.71,2.02-5.59.6-3.82-.12-7.06-.8-8.71-.1-.56.11.16.01-.4-.51-1.83-1.2-3.58-1.99-5.24-.27-.28-.9-1.2-.65-.32-.53-1.15-1.17-2.05-1.97-3.65-2.11-3.92,0-.61-.65-2.07-2.45-4.5-5.09-9.35-7.63-14.16-1.27-2.41-2.51-4.83-3.68-7.21-.57-1.2-1.14-2.38-1.71-3.55-.52-1.08-.88-2.24-1.35-3.48l-.38,1.68c.12-.1.23-.2.34-.29l-1.77.22c.66.35,1.03.52,1.14.66.17.14.33.28.49.41-.07.08.57.75,1.87,1.44,1.28.7,3.3,1.25,5.32,1.32.35.02.38,0,.53.05.13.04.22.15.27.27.22.72.45,1.45.66,2.15.57,1.79,1.1,3.45,1.5,4.69,1.38,5,3.36,10.28,5.59,15.12,1.11,2.42,2.27,4.74,3.4,6.88,1.06,1.99,1.79,3.98,2.28,5.81-.42-1.04-.9-2.25-1.44-3.48-.27-.61-.55-1.22-.86-1.81-.32-.64-.64-1.27-.94-1.87-1.21-2.46-2.11-4.53-2.45-4.88l.74,2.05c.48,1.13,1.05,2.41,1.69,3.74.16.33.32.66.48.99l.43.92c.28.62.54,1.25.78,1.87.97,2.5,1.66,4.94,2.21,6.24-.5-2.56-.4-2.76-.52-3.62.7,1.95.93,2.25,1.65,4.78.27.97.45,1.79.56,2.67.1.86.12,1.68.08,2.39-.07,1.42-.35,2.38-.46,2.36.24-1.94.28-4.01-.09-5.73-.2-.28.04,1.08.02,2.78.02,1.7-.41,3.76-.72,4.77.73-1.75.62-.2.61.61-.01.4.02.61.27.08.2-.53.74-1.78,1.01-4.39-.04,1.92-.42,3.84-.97,5.72-.23,1.11.1.56.58-.78.49-1.34,1.01-3.52,1.1-5.58.1-2.05-.24-3.92-.32-4.64-.12-.7.23-.35.8,2.27.14.53.21.44.32.66.09.22.29.77.28,2.64.19-1.01.21-2.58-.04-4.07-.25-1.52-.68-2.82-.94-3.58-.14-1.35-1.1-5.07-2.55-8.38-.74-1.69-1.52-3.12-1.99-4.27-.5-1.14-.75-1.94-.65-2.08-2.29-4.45-3.5-7.96-4.54-11.39-1.03-3.45-1.87-6.8-3.18-11.25-.12-.4-.23-.79-.34-1.15-.05-.18-.11-.36-.16-.53-.05-.17-.09-.31-.2-.59-.37-.96-.99-1.65-1.69-2.01-.69-.37-1.4-.46-1.99-.48-.4,0-.74-.01-1.03-.02-.85-.03-1.06-.03-1.06.05-.01.14.9.5-.6.41-1.47-.35-2.76-.98-3.85-1.88-.7-.57-1.35-.76-1.66-.94l-.9-.51-.75.72c-.11.1-.22.21-.32.31l-.72.69.37.88c.31.74.61,1.46.9,2.16.31.73.7,1.44,1.02,2.03.67,1.21,1.27,2.31,1.78,3.22,1.46,2.86,2.16,4.69,1.1,2.83,2.63,5.41,5.39,10.76,8.11,16.13,1.35,2.72,2.84,5.37,4.02,8,1.2,2.65,2.04,5.29,2.36,8.09.34,2.75.11,5.46-.94,7.8-.26.58-.57,1.15-.93,1.69-.19.26-.35.54-.57.79l-.66.82c-1,1.2-1.94,2.42-2.86,3.67-1.83,2.49-3.5,5.06-5.12,7.62-1.6,2.56-3.2,5.14-4.71,7.78-5.25,8.4-8.57,17.03-12.92,25.64l.73-1.44c.15-.19-.3.97-.64,1.88.73-1.43,1.45-2.8,2.15-4.1-1.18,2.61-2.33,5.27-3.36,7.93-.36,1.56-1.85,5.38-3.14,9.4-1.32,4.01-2.38,8.24-2.57,10.3-.89,3.91-1.3,6.48-1.56,8.34-.29,1.87-.42,3-.58,4.16-.15,1.15-.31,2.31-.48,4.19-.17,1.88-.39,4.47-.49,8.51.02,1.86.09,3.79.21,5.78.06,1,.13,2.01.22,3.03l.07.77.05.46c.02.21.06.44.1.66.18.87.63,1.69,1.34,2.25l.87.72.77.66c.53.46,1.07.92,1.61,1.39.56.47,1.14.94,1.76,1.4.31.23.63.45.96.67l.5.32.61.35c.94.48,2.16,1.06,3.2,1.24.54.12,1.02.11,1.47.02.45-.07.97-.4,1.23-.78.15-.18.25-.39.36-.6.1-.21.19-.45.2-.76l.22-1.74.11-.87.04-.58.08-1.15c.26-3.66.79-6.9.84-6.3.33-4.34,1.06-10.51,1.79-14.93,2.98-18.93-1.6,2.23-2.2,9.5Z"/>
          <path class="cls-1" d="M26.8,111.09c.56.51-1.49-3.79-2.07-5.27l-.45-.85c-.14-.27-.27-.56-.4-.86-.28-.67-.53-1.31-.78-1.86l-.65,2.87c.11-.11.22-.22.32-.32l-2.97.36c1.14.52,1.01.41,1.09.4.44.27.46.2.13-.15-.01-.04.02-.07-.11-.16-.12-.1-.38-.23-.87-.52l2.4-.29c-.08.06-.16.13-.24.2-.02.03-.04.05-.09.11l.52-2.3c.19.32.45.91.74,1.58.14.32.3.67.46,1.04.08.17.17.35.25.53.1.2.21.41.31.62.84,1.7,1.76,3.57,2.41,4.89Z"/>
          <path class="cls-1" d="M43.01,151.78l-.17-.84c-.23,2.47-1.08,4.96-2.43,7.1.13-.03.71-.83,1.29-2.03.58-1.2,1.08-2.8,1.31-4.23Z"/>
          <path class="cls-1" d="M38.65,175.56c1.37-2.79,2.39-4.72,3.39-6.7.98-1.99,2.05-4,3.23-7.06-.31.32-.62.64-.93.95-2.75,5.73-6.07,11.62-9.36,18.52-1.76,4.87,4.33-8.17,3.68-5.71Z"/>
          <path class="cls-1" d="M45.23,163.72c-4.24,10.62-11.05,22.13-14.07,31.26,1.06-.98,2.97-5.34,5.17-10.23,2.19-4.89,4.62-10.34,6.35-13.55.97-2.21,1.72-3.96,2.53-5.89.79-1.94,1.67-4.04,2.43-7.09.23-1.13.22-1.54.16-1.44-.07.1-.23.69-.47,1.5-.48,1.63-1.46,4.06-2.09,5.44Z"/>
          <path class="cls-1" d="M29.48,197.53c-.49,1.13-.95,2.48-1.19,3.15-.23.86.7-1.25,1.17-2.2.48-1.13,1.47-4.19.02-.95Z"/>
        </g>
      </g>
      <g>
        <path class="cls-1" d="M12.85,87.01c-1.12-4.66-1.29-6.3-1.33-7.19-.03-.9.12-1.07-.12-2.8l1.21,4.67c.67,3.12,1.61,7.07,2.38,9.99.76,2.93,1.31,4.86.85,4.01-.26-.56-2.02-4.74-2.99-8.67Z"/>
        <path class="cls-1" d="M17.44,97.09c-.31-.84-.31-1-.61-1.84l1.22,2.32-.61-.48Z"/>
        <path class="cls-1" d="M9.48,70.26c-.41-1.47-.77-3.01-.89-4.62,0-.56.03-.15.11.36.07.52.2,1.14.21,1.06-.22-1.77-.14-3.58.16-5.3-.28,1.76-.27,3.12-.18,4.15.09,1.03.25,1.72.35,2.23.22,1.02.28,1.35.23,2.12Z"/>
        <path class="cls-1" d="M41.28,63.41s-.04-.09-.05-.12c-.48-1.21-.25-.91.22-.11.09.14.27.32.55.69.14.18.29.37.45.69.08.16.15.35.19.61.04.25.03.6-.1.91-.28.64-.72.86-1,1.03-.24.11-.52.2-.88.19-.34-.02-.66-.15-.87-.29-.41-.28-.57-.54-.69-.71-.12-.18-.2-.32-.26-.43-.19-.42-.29-.76-.39-1.03-.05-.15-.08-.22-.13-.33-.07-.14-.13-.28-.2-.41-.25-.53-.46-.99-.59-1.31-.26-.64-.2-.74.41.2.22.41.42.78.61,1.13l.14.25c.03.06.06.12.09.19.07.16.13.32.19.47.13.33.25.66.48,1.02.11.18.26.38.5.58.26.21.72.34,1.09.26.36-.09.51-.2.7-.33.19-.15.41-.38.51-.69.2-.67-.06-1.09-.18-1.35-.3-.51-.62-.84-.78-1.11Z"/>
        <g>
          <path class="cls-1" d="M19.42,46.33c-.43.31-1.27.93-2.15,1.73-.89.79-1.9,1.74-2.79,2.71-1.82,1.92-2.97,3.97-2.55,3.61.36-.29.72-.59,1.53-1.48.99-1.36,2.12-2.61,3.33-3.77,1.18-1.03,2.11-1.68,2.8-2.04.69-.36,1.11-.44,1.23-.46.26-.02-.56.26-1.32.81-.77.53-1.49,1.27-1.66,1.5-.08.12-.02.12.27-.07.29-.18.79-.58,1.68-1.08,1.53-.91,2.48-.78,3.2-.71.99.17,1.63.47,2.02.62.4.15.55.21.53.16-.05-.09-.77-.62-1.93-1.09,1.5.47,2.52,1.18,3.39,1.72.85.56,1.52,1.06,2.04,1.49,1.03.88,1.51,1.47,1.85,1.95.35.48.55.85.94,1.38.39.54.97,1.24,1.94,2.48,1.36,1.69,2.09,2.77,2.56,3.37.47.6.66.74.75.69.17-.09-.08-.9.57-.05-.15.06.28,1.04,1.03,2.68.19.41.4.86.62,1.35.24.47.35,1.03.6,1.63.06.15.13.3.24.45.1.15.26.32.52.38.26.05.49-.06.66-.15.17-.11.38-.28.44-.56.08-.55-.2-.89-.38-1.2-.2-.32-.42-.59-.54-.88-1.1-2.54-2.61-5.35-4.53-7.98-1.92-2.64-4.23-5.1-6.75-7.11-.44-.33-.9-.64-1.37-.93-.24-.15-.48-.29-.72-.43-.19-.1-.36-.2-.55-.29-.75-.37-1.55-.67-2.37-.9l-.32-.08s-.12-.02-.15-.04l.13-.1.53-.39c.36-.25.72-.51,1.08-.76.77-.53,1.36-.91,2.45-1.58,1.97-1.19,4.09-2.29,6.25-3.11.27-.11.57-.14.85-.1.28.04.56.14.89.29.64.3,1.27.76,1.98,1.21,1.45.83,2.74,1.63,4.04,2.61,2.57,1.93,4.83,4.29,6.88,6.96,3.67,4.96,8.07,11.73,12.23,18.7-.03.01-.05.05-.08.05.12.16.21.25.24.23.68,1.33,1.66,3.06,2.75,4.94.5.87,1.02,1.77,1.55,2.68.2.36.45.76.59,1.04.07.16.13.32.11.5-.02.17-.13.32-.28.4-.29.18-.62.25-.92.36-.17.06-.34.12-.51.17-.25.09-.49.18-.73.27-.96.36-1.83.74-2.59,1.07-1.51.68-2.57,1.22-2.98,1.26-.43.27-.84.56-1.25.84-1.56,1.04-2.3,1.61-2.65,1.85-.35.24-.29.15-.16,0,.27-.31.83-.89-.92.38-2.72,2.19-5.59,5-8.03,7.44-2.45,2.46-4.62,4.46-5.73,5.72-.43.3.09-.16-.34.14-1.33,1.11-2.73,2.11-4.2,2.96-.23.28-1.07.92-.25.65-.54.3-1.05.58-1.62.89-.14.08-.29.16-.43.24-.1.06-.19.09-.21.1-.01-.03.02.1,0,.17,0,.08,0,.12-.01.17,0,.06-.03.07.02,0,.03-.04.07-.09.13-.15.03-.03.09-.09.1-.09h0s-.03-.07-.05-.12c-.06-.12-.14-.38-.21-.59-.06-.21-.12-.39-.17-.54-.09-.31-.15-.53-.18-.67-.06-.28-.01-.27.06-.18.15.19.43.71.24-.07-.89-2.68-1.73-5.54-2.79-8.42-.53-1.44-1.12-2.88-1.8-4.3l-.53-1.06-.51-.95-.02-.05s.07-.03-.21.05c-.32.11-.64.12-.74.1-.13-.02-.08-.06,0,.08.08.13.18.43.23.83v.07s0,0,0,0h0s.01,0,.01,0h.06s.18,0,.18,0l.61.03c3.49.18,6.78-1.32,9.17-3.49,2.42-2.17,4.05-5.14,4.42-8.29.06,0,.14-.21.22-.62.05-.38.1-.91.13-1.58.04-1.33-.04-3.19-.41-5.19-.36-2-1.02-4.14-1.86-6.02-.83-1.89-1.84-3.51-2.65-4.65-.75-1.19-1.61-2.34-2.57-3.41-.93-1.11-2.16-2.2-3.4-3.04-.63-.43-1.28-.82-1.94-1.17-.33-.18-.66-.34-1-.5-.37-.16-.74-.34-1.14-.47-1.55-.58-3.48-.77-5.18-.26-1.7.47-3.04,1.42-4.12,2.36-1.09.97-1.97,1.95-2.81,3.03-1.64,2.16-2.66,4.61-3.1,6.84.13-1.34.55-2.93,1.29-4.42.73-1.5,1.77-2.87,2.8-3.97,1.02-1.09,2.1-2.03,3.07-2.68.97-.65,1.78-1.02,2.04-1.19-.92.27-1.77.68-2.52,1.14-1.26.84-2.41,1.9-3.51,3.13-1.12,1.25-2.14,2.77-2.82,4.38-.69,1.61-1.04,3.28-1.13,4.7-.11,1.43.04,2.61.2,3.41-.03-1.53.1-2.36.22-2.92.13-.56.23-.86.39-1.36-.14,1.23-.07,1.94-.02,2.71.08.77.15,1.62.42,3.05.72,4.21,2.69,8.33,2.46,8.42-1.07-2.01-1.84-4.42-2.36-6.47-.22-.34.06,1.32.73,3.33.66,2.01,1.73,4.25,2.27,5.34-.71-2.07.31-.57.89.09.29.33.47.47.25-.12-.2-.6-.86-1.88-1.87-4.59.83,1.94,1.82,3.79,2.88,5.58,1.47,1.91-1.12-2.42-2.5-6.48-.7-2.02-1.07-3.93-1.11-4.67-.03-.37.01-.44.14-.1.13.34.34,1.09.79,2.33.23.49.29.38.44.57.16.18.36.68,1.1,2.29-.27-.94-.71-2.31-1.07-3.67-.37-1.35-.64-2.67-.77-3.43.04-.65-.02-1.89.19-3.32.2-1.43.68-3.06,1.49-4.47.81-1.4,1.88-2.58,2.79-3.38.9-.79,1.57-1.15,1.72-1.06,1.74-1.42,3.47-1.51,5.09-.86.78.31,1.64.8,2.37,1.27.74.49,1.41,1.01,2.02,1.58,1.17,1.1,2.24,2.56,3.25,4.05,1.01,1.52,1.94,3.21,2.74,5.22,1.02,2.55,1.27,4.17,1.48,5.07.18.91.25,1.14.33,1.12.14-.03.22-1.08.58.52.1,1.4.11,2.89.02,4.18-.1,1.24-.45,2.45-.95,3.52-1.04,2.16-2.66,3.75-4.01,4.67-1.27.8-2.45,1.04-2.99,1.13-.57.02-.52,0,.37-.31-.64.17-1.29.27-1.94.29-.33.04-.65,0-.97-.02-.29.02-.68-.14-1.58,0-.26.07-.62.16-1.02.56-.2.22-.35.47-.43.74-.07.23-.09.5-.08.64.06.68.23.92.34,1.19l.52,1.02c.32.66.62,1.33.9,2.01,1.13,2.72,1.97,5.61,2.82,8.57.43,1.48.86,2.97,1.34,4.47.08.25.18.53.38.88.2.33.53.82,1.2,1.14.68.32,1.39.27,1.79.17.41-.09.76-.27.92-.34.71-.35,1.38-.64,2.13-1.03,2.95-1.5,5.56-3.51,7.91-5.65,2.36-2.14,4.5-4.4,6.66-6.54,2.13-2.14,4.34-4.09,6.73-5.78,2.38-1.68,4.93-3.07,7.62-4.07l1.34-.49c.62-.24,1.33-.41,1.83-.75.51-.32.91-.71,1.2-1.24.29-.55.34-1.15.28-1.72-.04-.29-.1-.58-.2-.88-.11-.27-.26-.51-.39-.77l-.81-1.52-.38-.71-.29-.5-.58-1c-4.72-8.86-10.16-16.46-15.56-24.81l.89,1.39c.09.23-.69-.77-1.33-1.55.89,1.39,1.72,2.74,2.49,4.05-.83-1.21-1.69-2.41-2.57-3.6-.84-1.17-1.85-2.44-2.88-3.55-.95-.77-2.78-2.59-5.24-4.33-.61-.43-1.26-.87-1.94-1.28-.34-.21-.68-.41-1.03-.61l-.44-.25-.44-.27c-.62-.39-1.31-.87-2.24-1.27-.44-.19-1.11-.39-1.71-.42-.61-.05-1.21.09-1.77.28-.3.12-.59.25-.88.37-.26.12-.52.24-.77.35-.5.24-.96.47-1.38.71-.85.47-1.54.9-2.04,1.27-.94.52-1.76,1.02-2.52,1.5-1.16.75-2.22,1.46-3.14,2.12-.93.66-1.77,1.26-2.54,1.8-.39.28-.76.54-1.11.79-.22.14-.21.2-.31.3-.08.1-.12.16-.24.28,1.35.37,2.51.69,3.55.97,1.06.3,1.94.56,2.63.9.37.16.69.35,1.02.53l.12.07.11.07.12.08.24.16c.32.22.65.46,1.01.74.69.56,1.55,1.33,2.7,2.49,1.14,1.16,2.56,2.71,4.2,5.03,1.51,2,2.91,4.22,4.18,6.77.38.72.73,1.07.84,1.25l.03.05v.02s-.05.03.1-.05c.46-.23.77-.35,1.01-.4.48-.11.43.1.15-.21-.08-.11-.33-.42-.41-.69-.32-.7.44.93.36.77h0s0,.02,0,.02v.03s.04.06.04.06c.01.04.02.08.03.13.01,0,0,.08,0,.07-.02-.05.24-.49,1.11-1.01.07-.05.08-.05.07-.04h0s-.01-.02-.01-.02c0-.02-.01-.02-.03-.05-.02-.05-.05-.11-.09-.18l-.23-.56c-.08-.21-.22-.53-.37-.8l-.32-.58-.65-1.16c-.44-.77-.9-1.55-1.37-2.32-1.9-3.08-4.16-6.16-7.02-8.74-1.48-1.34-3.1-2.47-4.13-3.19-1.07-.75-1.77-1.18-1.42-1.07-.29-.14-.59-.29-.9-.44-.35-.14-.67-.29-1.07-.41-.74-.26-1.74-.44-2.76-.35-1.03.09-2.02.46-2.76.9-.77.43-1.41.91-2,1.39-2.26,1.86-4.33,4-5.78,6.15-1.49,2.32-2.16,4.29-2.5,5.66-.34,1.38-.39,2.18-.39,2.5.03.64.21-.64.93-2.74.38-1.04.91-2.27,1.64-3.5.73-1.23,1.64-2.47,2.64-3.58.99-1.12,2.07-2.13,3.07-3,1-.86,1.99-1.64,2.99-2.16Z"/>
          <path class="cls-1" d="M32.74,87.75c-.35.29.88-.05,2.27-.86,1.41-.79,2.88-2.12,3.53-2.87.28-.34.54-.7.77-1.07.25-.37.48-.74.68-1.14.42-.71.68-1.41.92-1.99.19-.61.35-1.13.44-1.57.15-.9.2-1.42.14-1.61-.1-.39-.19.65-.93,2.56-.12.74-.88,2.76-2.41,4.55-.73.92-1.67,1.74-2.61,2.45-.96.67-1.94,1.23-2.8,1.56Z"/>
          <path class="cls-1" d="M45.27,92.38l-.3.71c1.53-1.6,3.06-3.25,4.71-4.88-.28,0-2.65,2.37-4.41,4.17Z"/>
          <path class="cls-1" d="M27.03,93.49c-1.17-2.96-1.8-5.09-3.06-6.97-.62-.93-1.39-1.79-2.43-2.53-.51-.36-1.16-.64-1.65-1.2-.5-.54-.92-1.2-1.35-1.91.07.45.14.9.25,1.36.23.36.49.73.81,1.07.16.17.34.34.54.49.1.08.21.15.32.21l.24.16c.66.41,1.24.93,1.76,1.5,1.06,1.15,1.78,2.61,2.42,4.18.61,1.56,1.2,3.35,1.89,5.02.63,1.66,1.13,3.44,1.66,5.31.96,2.47.43.15-.25-2.43-.34-1.29-.78-2.62-1.09-3.49-.31-.88-.41-1.33-.05-.78Z"/>
          <path class="cls-1" d="M20.09,81.98c.22.25.44.48.68.65.12.09.23.15.37.23l.51.29c.68.4,1.33.9,1.89,1.47,1.16,1.14,2,2.55,2.67,3.98.67,1.43,1.18,2.9,1.75,4.29.61,1.39,1.16,2.92,1.59,4.38.44,1.52.87,3.02,1.29,4.5.27.9.57,1.83.61,2.57.03.35.03.82-.36,1.07-.34.23-.72.3-1.12.37-.81.09-1.68.09-2.56-.07-.9-.16-1.69-.41-2.33-.66-1.33-.53-2.5-1.2-3.58-1.79.42.59,1.61,1.69,3.79,2.66.27.12.64.24.99.36.42.09.86.25,1.31.3.9.17,1.82.16,2.68.05.42-.08.8-.2,1.14-.4.34-.17.7-.57.78-.95.09-.37.12-.74.08-1.18l-.11-.71c-.04-.24-.14-.51-.21-.77-.48-1.53-.97-3.1-1.45-4.67-.43-1.35-.9-2.72-1.44-4.01-.29-.68-.54-1.21-.77-1.79-.23-.59-.46-1.16-.67-1.7-.43-1.11-.86-2.16-1.28-3.07-.65-1.16-1.38-2.17-2.23-3.02-.42-.43-.87-.81-1.35-1.16-.24-.16-.47-.35-.74-.49-.23-.13-.47-.27-.7-.4-.53-.28-1.14-1.1-1.76-2.12-.65-1.02-1.34-2.15-2.08-3.47-1.13-1.92-.9-1.24-.19.26.36.75.86,1.69,1.37,2.61.52.92,1.02,1.84,1.44,2.39Z"/>
          <path class="cls-1" d="M19.15,101.06c-.28-.27-.5-.6-.67-.95-.17-.34-.28-.67-.38-.97-.2-.61-.35-1.11-.48-1.4-.21-.41-.1-.04.02.5.12.56.29,1.45.58,2.1.22.47.72,1.1,1.33,1.38.94.49,1.64.77.14-.23-.11-.07-.32-.21-.53-.42Z"/>
        </g>
      </g>
      <g>
        <path class="cls-1" d="M131.45,225.44c-.28,3.57-.47,4.74-.66,5.39-.19.65-.38.74-.53,2.03-.05-1.18-.06-2.38-.06-3.57.19-2.38.42-5.4.6-7.69.16-2.29.22-3.83.41-3.1.09.47.47,3.93.24,6.95Z"/>
        <path class="cls-1" d="M130.11,217.13c.05.68,0,.79.04,1.47-.14-.65-.31-1.3-.47-1.94l.44.47Z"/>
        <path class="cls-1" d="M130.47,238.16l.07,3.37c-.03.78-.12-1.13-.17-1.02l-.12,3.79c.09-5.14-.25-5.06.23-6.14Z"/>
        <path class="cls-1" d="M119.56,248.27c.17-2.57.43,1.95.55,3-.02,2.15-.32,4.03-.44,2.31.04-2.82-.06-3.96-.11-5.31Z"/>
        <g>
          <path class="cls-1" d="M129.4,258.64c.3-.35,1.01-1.16,1.12-2.4.04-.31.04-.6.03-.87,0-.23-.02-.47-.03-.71-.01-.48-.03-.97-.04-1.45-.05-1.91-.1-3.57-.27-3.19-.14.32-.29.64-.37,1.54l.23,3.71c.01.6-.08,1.28-.29,1.72-.2.47-.49.78-.74.99-.51.42-.84.5-.93.53-.21.03.41-.27.89-.86.51-.59.57-1.47.5-1.68-.03-.11-.07-.08-.14.17-.09.23-.18.73-.74,1.24-.46.45-.92.62-1.29.81-.37.18-.64.33-.88.48-2.64,1.54-1.8,1.22-.15.58-3.84,2.03-5.55,2.48-6.17,2.44-.34-.02-.53-.04-.88-.17-.2-.06-.32-.38-.3-.72,0-.34.07-.75.09-1.27.1-2.72-.08-3.61-.28-3.58-.19-.02-.42.6-.5-.21.3.05.7-2.94.84-7.17.16-4.23,0-9.71-.44-14.58-1.09-9.07-2.14-19.33-4.79-29.96-.87-4.59-2.22-10.56-3.8-16.48.03,0,.06-.03.09-.02-.06-.14-.12-.22-.15-.21-.38-2.23-1.44-5.84-2.36-9.03-.94-3.18-1.58-5.97-1.36-6.57l-.29-1.04c-1.1-5.26.22-.05-.22-3.1-.47-2.41-.71-5.28-.73-7.78-.04-2.44.29-4.59.23-5.85.11-.38.05.14.15-.24.21-1.27.5-2.54.86-3.8-.06-.29.02-1.1-.32-.52.29-.87.4-1.69.93-2.91,1.28-3.09.41-.26.99-1.32.31-.76.65-1.53,1-2.31.29-.67.77-1.37,1.23-2.3.22-.46.43-1,.55-1.6.07-.37.17-.73.29-1.07.25-.67.62-1.24,1.1-1.7.49-.46,1.12-.79,1.83-1.04.36-.12.74-.22,1.13-.29.23-.04.35-.06.44-.07.11-.01.22-.03.33-.04.43-.03.86-.06,1.29-.09l.61-.04.29-.02h.14c.06-.02-.04.06-.06.09-.61.73-1.14,1.45-1.57,2.04-.21-.13-1.57,1.92-2.85,4.55-1.3,2.63-2.54,5.76-3.29,7.57-.88,1.74-1.78,3.93-2.09,6.25-.34,2.33-.07,4.88.84,7.03.43,1.07,1.03,2.11,1.5,2.88.49.84.96,1.65,1.42,2.44.9,1.58,1.69,3.07,2.29,4.43-.96-1.48-2.11-3.59-3.1-5.39-.51-.91-.97-1.73-1.33-2.37-.41-.72-.68-1.26-.84-1.41.19.61.44,1.21.68,1.78,1.72,3.28,4.28,8.47,5.54,10.22-.73-1.88-.64-2.08-.82-2.74.83,1.39,1.08,1.57,2.02,3.36,1.36,2.63,2.51,5.63,2.27,5.73-.68-1.45-1.3-3.07-1.96-4.39-.24-.18.2.9.74,2.24.54,1.34,1.17,2.95,1.42,3.77-.24-1.53.41-.44.82.07.2.25.34.36.27-.09-.07-.45-.34-1.47-1.07-3.43.65,1.39,1.25,2.79,1.8,4.22.85,1.57-.2-2-1.37-4.97-1.16-2.96-2.21-5.38-.18-1.88.49.68.23-.41,1.47,2.06-.37-1.49-1.71-4.23-2.39-5.27-.47-2.09-5.47-10.28-5.07-10.8-1.93-2.95-1.78-5.7-1.06-8.07.37-1.22.88-2.34,1.53-3.61.66-1.32,1.32-2.74,2.04-4.34,1.82-4.04,2.14-4.69,1.99-4.76-.14-.05-.68.57-.26-.63.38-.67.76-1.34,1.13-2,.2-.34.39-.68.59-1.01.29-.51.63-1,.93-1.49,1.28-1.94,2.67-3.83,3.67-5.25-.07-.14-.65,0-1.01.03-.4.05-.78.1-1.15.15-.72.09-1.39.18-1.99.26-1.72.16-3.07.22-3.76.22-.68.02-.66-.08.59-.25-.43.02-.87.07-1.3.12-.48.06-.71.1-1.05.17-.64.12-1.29.31-1.93.58-1.29.5-2.55,1.5-3.35,2.75-.39.63-.7,1.29-.91,1.96-.11.32-.19.7-.26.97-.04.15-.1.32-.19.51-.17.38-.44.82-.75,1.31-.15.25-.32.52-.48.81-.17.31-.3.59-.43.85-2.1,4.24-3.83,8.84-4.44,13.77-.32,2.45-.26,5-.04,7.36.2,2.39.56,4.76,1.01,7.09.45,2.33,1,4.63,1.6,6.9.61,2.23,1.23,4.46,1.84,6.68,1.63,7.31,4,13.85,4.8,21.12l-.14-1.21c.03-.19.26.72.44,1.44-.12-1.2-.24-2.36-.36-3.49.43,2.13.85,4.28,1.28,6.39.47,1.13,1.08,4.16,1.63,7.29.56,3.12,1.06,6.34,1.51,7.82.77,5.95.81,7.7.91,9.45.08,1.77.16,3.55.42,9.54.24,3.21.46,6.73.48,10.41.02.92,0,1.85-.01,2.78,0,.99-.05,1.68-.01,3.24l.02,2.06v1.03s.01.52.01.52v.26s.08.2.08.2c.1.27.23.51.41.74.17.24.51.46.78.55.28.09.55.13.85.14.29.02.65-.05.97-.08,1.03-.23,2.13-.73,3.1-1.14.65-.28,1.24-.53,1.74-.75.88-.37,1.37-.53,1.19-.38.74-.39,1.55-.81,2.38-1.2.26-.12,1.24-.53,1.9-1.16.69-.61,1.17-1.45,1.37-2.36.11-.45.14-.95.14-1.3v-.83c-.01-.51-.01-1.02-.02-1.52,0-.99-.01-1.95-.02-2.82-.3-7.42-.52-6.94-.66-3.9-.07,1.52-.12,3.68-.15,5.81-.01,1.07-.02,2.13-.03,3.09,0,.57-.09,1.34-.35,1.9-.25.58-.64,1.04-1.04,1.36Z"/>
          <path class="cls-1" d="M115.83,135.6c-.12.15-.06.24-.08.31-.01.08-.07.14-.19.21-.01,0-.02.01-.03.02.06-.03.1-.05.14-.05.12,0,.13.56.69,0-.08-.1-.02-.29.11-.48,0-.01.02-.03.02-.03h-.05s-.1.02-.1.02h-.18c-.12.02-.22.01-.32,0Z"/>
          <path class="cls-1" d="M105.61,159.94l-.29-.49c.06,1.55.24,3.2.46,4.79.16-.15-.14-2.5-.17-4.3Z"/>
          <path class="cls-1" d="M125.23,196.3c-1.26-4.6-1.59-6.5-3.18-11.29l-.2,1.06c1.2,4.77,2.48,9.81,3.9,15.42.71,1.85.41.11-.03-1.86-.43-1.97-.99-4.18-.5-3.33Z"/>
          <path class="cls-1" d="M123.13,186.11c1.52,4.1,2.86,8.66,4,13.11,1.15,4.45,2.05,8.78,2.94,12.42.47-1.11-.13-4.84-1.2-8.88-1.06-4.05-2.55-8.4-3.18-11.14-.61-1.74-1.1-3.14-1.63-4.64-.53-1.48-1.08-3.14-1.97-5.33-1.47-3.14.49,2.19,1.04,4.45Z"/>
          <path class="cls-1" d="M129.81,214.03c.11.95.24,2.05.32,2.6.16.68.09-1.11.1-1.95-.09-.96-.64-3.4-.42-.65Z"/>
        </g>
      </g>
      <g>
        <path class="cls-1" d="M84.28,41.51c-.37-2.3-.26-3.12-.15-3.56.12-.44.29-.53.36-1.37.11.76.25,1.51.39,2.26.14,1.51.45,3.42.75,4.84.29,1.42.5,2.37.2,1.99-.15-.25-1.21-2.22-1.55-4.17Z"/>
        <path class="cls-1" d="M87.12,46.16c-.16-.39-.13-.48-.29-.87l.78,1.01-.49-.14Z"/>
        <path class="cls-1" d="M84.14,33.24c-.02-.71-.04-1.42-.04-2.13.05-.49.1.72.15.65.06-.8.13-1.59.22-2.38-.25,3.22.17,3.18-.33,3.86Z"/>
        <path class="cls-1" d="M90.73,7.24c.11,0,.19.01.25.02.06.01.07.04.06.06-.01.03-.04.06-.15.11-.03.03-.06.06-.06.09,0,0-.09-.11.02,0,.1.06.04.05.06.13,0,.06,0,.15,0,.32,0,.14,0,.26,0,.34-.29,1.32-.79,2.42-.72,1.34.2-.85.29-1.49.36-1.96.06-.35.07-.37.18-.44Z"/>
        <g>
          <path class="cls-1" d="M85.07,20.79c.1.44-.14,1.78-.27,2.99-.14,1.22-.18,2.26,0,2.04.16-.19.32-.37.48-.92.02-.78.07-1.56.14-2.34,1.26-5.67-.04,2.43,1.04-1.31.15-.82.24-1.22.26-1.58.26-1.88.05-1.37-.39-.34,1.3-5.36,1.77-3.05,2.53-5.95.91-4.01-.31-1.71-.28-2.72.21.07.67-.87,1.16-2.42.13-.38.21-.86.42-1.13.11-.14.24-.23.41-.28.16-.04.44-.07.63-.11.85-.17,1.63-.54,2.36-.92l.19-.1s.03.02.02.06l-.02.12-.06.49-.11.94c-.06.61-.12,1.21-.18,1.79-.07,2.73-.47,5.81-.68,8.88-.14,1.56-.29,3.17-.28,4.85.03,1.67.17,3.42.82,5.12.43,1.47,1.34,3.12,2.8,4.39.72.64,1.55,1.19,2.43,1.64.93.45,1.69.78,2.53,1.23-.02.03-.02.06-.04.08.09.02.15.02.17-.01.66.47,1.63,1.03,2.69,1.63.54.29,1.09.59,1.64.89l.32.16c.08.04.16.09.24.14.16.1.24.27.3.43.14.34.27.65.39.95.13.32.25.62.34.89.18.53.26.92.19,1.1l.33.6c1.44,3.06-.23.1.45,1.93,1.39,2.81,2.48,6.75,3.54,8.01.05.25-.09-.05-.04.2.32.76.63,1.52.92,2.29.19.11.49.53.51.09.16.55.49.97.66,1.78.56,1.98-.21.31-.12,1.06.37,1.25.65,2.48.97,3.92.33,1.4.7,2.78,1.06,4.15.36,1.36.69,2.71.95,4.01.13.65.24,1.3.32,1.93l.06.47.03.23v.11c0,.15.01.29,0,.42-.13-.03-.2.08-.26.23-.03.07-.05.17-.13.24-.09.08-.24.05-.36.04-.13-.02-.26-.05-.4-.07-.32-.03-.64-.07-.94-.1-.91-.09-1.76-.14-2.39-.18-2.5-.39-5.24-.3-7.8-.04-.64.07-1.27.14-1.88.21-.57.07-1.13.14-1.66.21l-.26.03s-.1,0-.14,0c-.09,0-.19-.02-.27-.06-.16-.08-.24-.26-.26-.42.13.11.28.21.47.22.09,0,.18,0,.26,0,.29-.03.57-.06.84-.08,1.3-.12,2.4-.18,2.6-.36l-1.06-.09c-.57.02-1.22.04-1.89.06l-.43.02c-.1,0-.07,0-.09,0h-.02s-.05-.04-.07-.05c-.04-.03-.05-.07-.09-.1,0,.04-.06-.13-.11-.24-.05-.11-.1-.22-.15-.32-.1-.2-.2-.37-.29-.51.1.6.12.94.11,1.19-.05.14-.12.17-.15.29-.03-.03-.05-.06-.08-.09-.02-.03-.04-.04-.09-.14-.08-.15-.16-.29-.23-.43-.15-.28-.31-.59-.54-1.17-.66-1.75-1.3-3.69-1.07-3.77.44.93.74,2,1.07,2.87.38.23-.73-2.91-1.04-3.97.09,2.05-1.97-2.71-.52,2.36l-1.13-2.65c-.66-.93.05,1.29.59,3.2.54,1.91.93,3.49-.19,1.25-.33-.42-.28.28-.99-1.25.11.95.76,2.66,1.14,3.35,0,.17.04.41.1.69.08.31.12.54.32,1.09.19.49.46.99.89,1.39.42.4.99.64,1.57.72.58.09,1.21.02,1.56,0,.42-.03.78-.05,1.07-.04.59,0,.99.07,1.04.21,2.33-.4,4.08-.32,5.75-.12,1.67.21,3.27.53,5.38.8.48.06.92.12,1.3.17.39.07.85.07,1.21.09.36,0,.7.05.95.02.24-.03.43-.09.59-.14.61-.23.69-.41.64-.45-.12-.12-.81.07-.02-.62.38-.31.54-.73.64-1.16.05-.22.08-.45.1-.68l-.04-.75c0-.5-.1-1-.17-1.49l-.06-.36-.05-.25-.11-.49c-.3-1.27-.67-2.36-.94-3.17-.38-1.49-.4-2.45-.06-1.48-.53-2.52-1.08-4.88-1.47-7.37-.45-2.61-1.17-5.16-2.03-7.62-.85-2.47-1.85-4.86-2.87-7.2l-1.53-3.49-1.58-3.65c-.22-.54-.59-1-1.05-1.36-.23-.18-.48-.33-.74-.47l-.51-.28-1.71-.95c-.98-.65-1.99-1.25-3.06-1.78-.53-.27-1.08-.52-1.64-.76-.43-.19-.85-.38-1.23-.61-1.56-.88-2.59-2.2-2.76-3.89,0,.19.05.36.08.55-.03.1-.23-.27-.35-.6.04.58.14,1.14.3,1.65-.48-.91-.76-1.93-.92-3.06-.34-.61-.48-2.36-.38-4.26.08-1.89.27-3.95.06-4.95.35-3.71.55-4.77.73-5.85.05-.27.09-.54.14-.84.06-.53.14-1.13.22-1.85.08-.79.18-1.72.31-2.86.06-.59.12-1.24.2-1.95.04-.36.07-.73.11-1.13.02-.2.04-.4.06-.6,0-.16,0-.33,0-.5-.04.02-.12.07-.2.11-.93.56-1.88,1.13-2.86,1.71-.98.57-1.98,1.21-2.91,1.61-.23.1-.47.19-.7.25l-.3.08c-.16.05-.32.1-.5.18-.71.28-1.39,1.04-1.62,1.65-.13.31-.2.59-.25.83l-.08.46-.13.81c-.39,2.19-.97,4.48-1.63,6.79-.48,1.67-1.08,3.2-1.11,2.88-.49,2.07-1.11,5.15-1.31,7.44-.1,2.36-.01,3.47.07,3.75.09.28.22-.28.35-1.23.14-.99.34-2.33.53-3.65.22-1.35.5-2.66.69-3.53Z"/>
          <path class="cls-1" d="M115.26,67.84c-.34-.25.08,1.93.1,2.64l.27.91c.07.28.13.53.18.76l.04.14h.02s.04.04.04.04c.05.04.11.07.17.09.12.05.24.03.29-.21-.29-.48-.79-3-1.1-4.38Z"/>
          <path class="cls-1" d="M109.39,48.71l.39.2-1.32-2.79c-.13.15.5,1.52.94,2.59Z"/>
          <path class="cls-1" d="M92.91,58.09c1.05,2.76,1.25,3.96,2.45,6.84l.26-.73c-.88-2.92-1.76-6.03-3.14-9.39-1.41-2.07,1.32,4.2.43,3.28Z"/>
          <path class="cls-1" d="M94.41,64.39c-2.38-4.86-4.11-10.97-6.54-14.92-.64,1.62,3.5,8.43,4.42,11.77.97,2.07,1.57,3.27,2.7,5.9.97,1.88-.11-1.4-.58-2.75Z"/>
          <path class="cls-1" d="M87.85,47.93c-.21-.55-.52-1.16-.67-1.46-.25-.35.08.7.19,1.2.21.55,1.02,1.87.48.26Z"/>
        </g>
      </g>
      <g>
        <path class="cls-1" d="M141.83,83.01c.05,3.68-.51,2.56-.73,3.91l-.21-1.84c0-.61,0-1.3,0-1.99,0-.36,0-.64-.01-1.05-.02-.4-.1-.87-.24-1.25-.26-.79-.74-1.33-1.05-1.63-.31-.31-.42-.43-.13-.36.16.08.92.39,1.54,1.28.31.43.55,1.03.67,1.62.12.61.13.9.15,1.31Z"/>
        <path class="cls-1" d="M138.13,79.3c.38.14.43.21.78.41-.4-.11-.81-.13-1.16-.1.12-.1.25-.21.38-.3Z"/>
        <path class="cls-1" d="M141.28,89.65c.02.58,0,1.16-.01,1.74-.06.4-.09-.59-.14-.53-.07.65-.17,1.29-.27,1.94.31-2.63-.08-2.6.42-3.14Z"/>
        <path class="cls-1" d="M133.01,110.38c-.82,1.02.15-1.04.25-1.57.54-.93,1.2-1.65.94-.82-.7,1.23-.88,1.78-1.19,2.38Z"/>
        <g>
          <path class="cls-1" d="M140.11,99.82c-.08-.37.14-1.47.3-2.45.16-.98.24-1.83.04-1.67-.17.14-.33.28-.5.71-.06.63-.09,1.27-.18,1.9-.62,2.3-.66,1.77-.59,1.09.04-.7.08-1.58-.45-.09-.17.66-.25.98-.27,1.28-.3,1.51-.08,1.13.38.32-.33,1.08-.64,1.76-.91,2.2-.26.45-.48.66-.68.81-.41.3-.66.38-1.2,1.45-1.42,2.99.05,1.47-.13,2.28-.52-.31-3.86,4.78-6.28,9.06-1,2.07-2.25,4.17-3.55,6.37-.65,1.1-1.3,2.23-1.95,3.39-.32.58-.64,1.17-.95,1.78-.3.58-.6,1.15-.96,1.66-.7.82-1.69,1.41-2.95,1.36-.55,0-1.46-.17-2.28-.09-.59.03-1.04.12-1.55.22l.07-.11c-.06.04-.11.08-.14.12-.37-.05-.92.09-1.59.24.49-1.12,1.14-2.68,1.64-2.69l.03-.13c.02-.06,0-.04.04-.16,1.15-2.58.23.11,1.04-1.32,1-2.42,2.64-5.54,2.46-7.01.1-.19.05.09.14-.11.16-.69.33-1.37.47-2.07-.1-.17-.16-.62-.39-.32.13-.47.08-.92.28-1.59.39-1.7.33-.14.58-.73.81-4.36,1.36-9.34,1.95-13.48.5.02.73-4.72.8-6.74.66-4.01-.22-8.72.02-11.81.43,1.82.09,4.99.42,5.34l.16-.84c.13-1.89.23-4.97-.23-6.08-.13,1.07-.31,1.15-.43,1.51-.15-.84-.28-.97-.42-2.02-.15-1.54-.31-3.23-.06-3.26.2.83.21,1.76.3,2.53.15.13.17-.49.14-1.27-.01-.39-.05-.81-.08-1.2-.01-.19-.03-.38-.04-.54-.04-.2.05-.23-.06-.21.1,0,.04,0,.05,0h-.02s-.02.01-.03.02l-.05.04s-.06.1-.09.13c-.06.06-.13.05-.19,0-.07-.06-.13-.1-.19-.13l-.08-.03s-.02,0-.04,0h-.22c-.58-.06-.69-.1-.1-.02-.05.02-.1.05-.1.38,0,.31,0,.72.01,1.26l-.22-1.17c-.04-.21-.07-.37-.08-.46v-.05s0-.01,0-.01c-.02,0-.1-.02-.15-.04-.19-.05-.25-.13-.22-.09.01.02.05.09.07.14.02.05.05.16.04.11,0-.03-.01-.06-.02-.08,0-.02-.01-.01-.02-.05-.03-.06-.05-.1-.06-.12-.01-.02-.01,0,.04.02.04.02-.01,0-.02.04-.08.12-.06.49-.05.89.01.4.03.82.04,1.22.04,1.62-.03,2.94-.51.96-.21-.39-.34.17-.63-1.17-.14.77.04,2.24.21,2.84-.19.52-.11,1.96-.1,3.29.01,1.33-.05,2.55-.35,2.62.47,3.88-.49,5.69-.79,9.22-.4,4.51.26,1.6.51,2.92-.32,2.24-.22,4.49-.21,5.86-.13,1.22-.44,1.93-.44,1.11-.79,4.41-1.8,8.78-3.23,12.97-.71,2.1-1.53,4.15-2.46,6.13-1.67,3.4-3.33,6.79-4.98,10.17l1.03-.24c1.48-.25,3.05-.57,4.78-.97.86-.21,1.74-.45,2.59-.63l.63-.11c.11-.02.19-.03.34-.05h.13c.17-.03.33-.03.49-.03.16,0,.31.01.46.02.31.02.6.06.93.05.63.01,1.32-.07,2.01-.24,1.42-.34,2.71-1.25,3.64-2.14-.2.2-.44.39-.68.58-.14.04.34-.48.61-.89-.61.57-1.32,1.09-2.12,1.44,1.44-.88,2.29-2.12,2.89-3.18.21-1.36,3.06-5.51,3.39-7.12,3.09-5.26,2.04-2.92,5.2-8.21.73-1.48,1.52-3.11,2.34-4.79.43-.84.87-1.69,1.31-2.55.45-.92.9-1.85,1.32-2.79.6-1.37,1.23-2.6,1.25-2.34.56-1.73,1.15-4.25,1.43-6.09.37-7.87-.74.94-1.71,3.71Z"/>
          <path class="cls-1" d="M122.24,107c.25.31.56-1.57.74-2.19l-.02-.85c.08-2.11-.25-2.2-.51-.89.2.51,0,2.74-.21,3.92Z"/>
          <path class="cls-1" d="M118.71,123.78l-.17-.36c-.25.84-.56,1.67-.85,2.51.18,0,.67-1.2,1.01-2.14Z"/>
          <path class="cls-1" d="M127.36,77.93c-2.37-.39-3.29-.77-5.83-.98l.42.56c2.43.51,4.96,1.16,7.84,1.65,2.04-.2-3.44-.93-2.43-1.23Z"/>
          <path class="cls-1" d="M122.29,76.34c4.46.02,9.46,1.53,13.28,1.71-.36-.71-2.23-1.14-4.34-1.4-2.11-.27-4.44-.38-5.82-.75-.93-.04-1.69-.08-2.49-.11-.4-.02-.82-.04-1.28-.05-.25,0-.53-.07-1.13.07-.29.06-.81.36-1.01.8-.19.4-.18.7-.18.93.04.34.11.49.14.56.04.08.07.1.09.08.05-.05.03-.24.06-.72.04-.22.04-.63.48-1.02.46-.33.82-.27,1.07-.26.5.06.82.13,1.13.18Z"/>
          <path class="cls-1" d="M136.58,78.89c.47.13,1.02.23,1.29.28.36,0-.48-.33-.87-.52-.47-.14-1.75-.21-.43.24Z"/>
        </g>
      </g>
      <g>
        <path class="cls-1" d="M117.04,70.35c-.33-2.86.28-2.07.36-3.16l.4,1.41c.23,1.93.47,4.91.07,4.4-.08-.18-.67-1.44-.83-2.65Z"/>
        <path class="cls-1" d="M118.99,73.37c-.05-.27-.01-.32-.07-.59l.51.71-.44-.13Z"/>
        <path class="cls-1" d="M116.81,65.12l-.33-1.32c-.03-.32.21.42.25.37l-.18-1.53c.32,2.06.65,1.96.26,2.48Z"/>
        <path class="cls-1" d="M113.52,47.28c-.21-1.05.67.59.96.94.3.83.37,1.63-.05,1.04-.4-1.08-.68-1.47-.91-1.98Z"/>
        <g>
          <path class="cls-1" d="M114.78,57.42c.5.39,1.05,3.32,1.3,2.95.11-.16.22-.32.22-.7l-.57-1.41c-.87-3.67.85,1.39.49-1.14-.17-.52-.25-.78-.37-.99-.53-1.14-.51-.76-.48-.02-1.1-3.42.24-2.42-.39-4.29-1.04-2.51-1.04-.73-1.47-1.27.29-.09.12-1.33-.36-3-.24-.84-.56-1.78-.94-2.73-.34-.87-.62-1.52-.95-2.23-.52-.88-.97-1.83-1.35-2.7l-.14-.33-.07-.16-.03-.08s.05-.04.07-.06c.18-.29.45.01.69.11.48.27.95.53,1.41.77.48.25.96.45,1.45.62.25.08.5.17.76.25.3.09.61.19.92.28,1.73.77,3.96,1.83,6.19,2.9-.01.03-.02.06-.04.09.07,0,.11,0,.13-.04.74.57,2.13,1.16,3.34,1.73,1.2.57,2.27,1.13,2.23,1.51.12.05.24.09.35.14.79.5.7.58.59.58-.13,0-.33-.02,0,.34.61.48,1,1.27,1.26,2.11.34,1.01.69,1.87,1.15,2.26.02.17-.08-.02-.06.14l.69,1.5c.17.05.44.3.49,0,.13.36.4.62.55,1.15.48,1.29-.21.26-.15.76,1.36,3.19,2.67,6.95,3.29,10.19-.47.14.62,3.74.98,5.27.07.58.13,1.11.19,1.64.07.54.17,1.23.27,1.76.16.41.33.83.47,1.19l.04.1s-.05,0-.08,0c-.06-.01-.13-.03-.19-.05-.13-.04-.27-.11-.4-.19.05-.06.1-.08.17-.09.04,0,.07,0,.11,0,.01,0,.05.02.05,0l-.02-.07c-.08-.24-.08-.49-.3-.6-.05.02-.1.03-.15.02-.02.04-.06.06-.09.06-.18-.08-.22-.17-.22.11.16.24.31.46.48.64-.16.06-.15.2-.5.17l-.19-.03-.28-.06c-.29-.07-.57-.14-.8-.22-.47-.15-.78-.3-.76-.42.34.03.68.11,1.02.19.17.04.33.08.49.12l.24.06.1.02c.02-.07.02-.12-.05-.18-.17-.08-.43-.17-.73-.26-.59-.18-1.3-.37-1.65-.49,1.12.9-2.27.42,1.03,1.57l-1.88-.28c-1.53.24,5.86,1.85,2.51,1.75-.36.09.03.37-1.09.28.27.18.7.32,1.14.42.6.14,1.19.22,1.51.22.36.22,1.12.44,2.01.67.45.11.93.23,1.4.34.45.09,1.06.32,1.17.14-.32-1.13-.49-2.1-.22-2-.59-1.49-.79-2.47-.88-3.44-.07-.7-.06-1.22-.05-1.85,0-.6,0-1.24-.07-1.9-.06-.61-.13-1.26-.29-1.98-.82-3.65-.68-1.17-1.27-2.12-.31-1.84-1.15-3.53-1.63-4.55-.31-.96-.29-1.61,0-1-.91-3.68-2.08-7.33-3.37-10.9l-.49-1.34c-.16-.44-.41-1.05-.7-1.56-.58-1.06-1.45-2.05-2.42-2.76-.48-.36-.98-.67-1.47-.93l-1.28-.67c-.85-.44-1.71-.86-2.57-1.27-2.66-1.68-5.53-2.28-8.07-4.07l.42.3c.04.09-.33-.03-.63-.11.4.31.8.61,1.2.91-.89-.41-1.35-.65-3.12-1.33-.21-.02-.49-.07-.83-.18-.35-.13-.75-.29-1.2-.48-.9-.4-2.02-.95-3.08-1.47-.52.27-.91.4-1.19.52-.13.05-.24.1-.36.15l-.04.02-.06.08-.11.16c-.05.11-.18.19-.12.3.64,2.59.81,3.57.99,4.42.09.44.19.9.41,1.64.11.37.26.8.46,1.33.1.26.22.55.34.86.11.27.24.57.37.89,1.24,2.25,2.59,5.04,3.49,7.98.32,1.07.41,2.11.25,1.96.42,1.27.95,3.11,1.27,4.47,1.86,5.67.72-.97.11-3.15Z"/>
          <path class="cls-1" d="M133.23,63.19c-.33-.12.02,1.31.04,1.81l.28.6c.56,1.53.88,1.5.75.46-.33-.3-.83-1.97-1.06-2.87Z"/>
          <path class="cls-1" d="M128.48,50.81c.11.01.22.06.34.09-.25-.56-.48-.93-.78-1.3-.11.13.25.65.44,1.21Z"/>
          <path class="cls-1" d="M126.76,76.08c1.92.36,2.64.74,4.66,1.11l-.28-.58c-1.9-.67-3.96-1.36-6.39-1.64-.85.18-.12.34.7.52.82.19,1.73.41,1.31.58Z"/>
          <path class="cls-1" d="M130.74,77.75c-1.77-.16-3.64-.53-5.45-.8-.91-.13-1.8-.22-2.65-.24h-.68c-.28,0-.55-.02-.82-.06-.54-.07-1.06-.26-1.51-.54,0,.41.51,1.02,1.5,1.28.24.06.51.11.79.14.29.03.39.03.6.04.36.01.76.02,1.17.04,1.62.03,3.46.1,4.53.48,1.48.11,2.36.21,4.22.49,1.4.05-.78-.56-1.69-.82Z"/>
          <path class="cls-1" d="M119.38,74.76c-.17-.43-.34-.96-.41-1.18-.15-.28-.12.51-.03,1,.07.25.32.64.5.76.18.12.18.05-.06-.58Z"/>
        </g>
      </g>
      <g>
        <path class="cls-1" d="M38.36,64.93c.61,2.32-.09,1.77-.1,2.68-.16-.37-.31-.74-.48-1.1-.35-1.54-1.04-3.83-.57-3.52.11.12.85.98,1.15,1.94Z"/>
        <path class="cls-1" d="M36.09,62.97c.09.2.06.25.15.44l-.58-.43h.44Z"/>
        <path class="cls-1" d="M38.86,69.28c.09.37.18.74.25,1.11,0,.27-.18-.36-.22-.31.03.43.03.85.03,1.28-.09-1.73-.48-1.62-.06-2.07Z"/>
        <path class="cls-1" d="M34.05,81.91c-.73.34.21-.66.28-1,.45-.41.98-.68.77-.19-.57.6-.76.9-1.05,1.19Z"/>
        <g>
          <path class="cls-1" d="M39.47,75.8c-.08-.12-.15-.38-.21-.69-.03-.1-.04-.12-.05-.29,0-.16,0-.33,0-.49-.02-.64-.06-1.2-.23-1.07-.15.11-.29.22-.38.51.07.39.11.85.16,1.19,0,.08,0,.12,0,.2,0,.09,0,.16,0,.24,0,.14,0,.26-.02.35-.03.19-.05.28-.08.31-.05.06-.11-.14-.18-.37-.16-.45-.35-.96-.46.02.02.42,0,.63.04.82.05.98.17.75.44.18-.2,1.49-.71,1.82-1.01,1.97-.34.15-.58.15-.95.77-.48.87-.5,1.12-.34,1.25.15.12.44.09.36.37-.23-.2-1.03.4-2.14,1.13-1.12.74-2.55,1.62-3.89,2.13-1.2.64-2.71.75-4.11.37-1.42-.37-2.74-1.2-4.06-2.19-.49-.51-1-1.15-1.48-1.88-.49-.74-1-1.56-1.48-2.38.03-.02.05-.04.08-.05-.05-.03-.09-.03-.11-.02-.41-1.37-2.43-3.99-1.9-4.6l-.19-.28c-.68-1.52.23-.1,0-1.03-.65-1.4-.64-3.47-1.35-4.09.01-.13.08.02.09-.11-.13-.39-.23-.79-.34-1.19-.15-.06-.36-.28-.47-.05-.04-.29-.24-.51-.25-.93-.1-.99.27-.15.36-.52-.44-2.38.27-5.36,1.74-7.2.21.12.63-.39,1.13-.98.48-.61,1.11-1.26,1.49-1.63.24-.13.47-.27.69-.43.23-.14.45-.29.67-.45.23-.14.45-.29.67-.45.18-.12.34-.22.51-.3.63-.34,1.48-.3,2.1.19-.47-.03-.95-.16-1.31-.18-.36-.01-.64.05-.65.24.1.02.19.07.27.11.27.02.59.12.99.28.39.14.84.33,1.18.3-.38-.42-.33-.58-.43-.79.42.09.55,0,1.08.23.79.4,1.58,1.02,1.44,1.22-.45-.2-.85-.55-1.24-.76-.28.15,1.05.99,1.4,1.37-.41-1.06,1.82.16-.08-1.63.42.22.84.46,1.25.7.61.1-.24-.71-1.01-1.37-.77-.65-1.44-1.21-.17-.81.31,0,.11-.36.95,0-.29-.46-1.16-.95-1.6-1.03-.2-.36-1.1-.86-2.12-1.12-1-.3-2.05-.22-2.15-.51-.83.23-1.47.53-2.03.8-.49.27-.98.44-1.43.67-.93.42-1.85.89-2.79,1.81-1.15,1.2-1.18,1.54-1.08,1.61.13.08.46-.04.33.43-1.07,1.21-1.46,2.81-1.61,3.74-.26.8-.61,1.25-.54.67-.59,1.51-.93,3.15-.96,4.84,0,.42.02.85.04,1.27l.12,1.18c.1.78.23,1.56.39,2.33.66,3.09,1.84,6.06,3.37,8.77.46,1.2,1.16,2.21,1.86,3.21.33.48.72,1.01,1.1,1.56.4.54.77,1.11,1.18,1.73l-.26-.41c0-.1.28.13.51.31-.24-.42-.48-.81-.65-1.21.5.63,1.08,1.22,1.73,1.73.51.09,1.45.79,2.61,1.29,1.14.52,2.48.77,3.1.54,1.18.14,1.96.04,2.51-.02.56-.04.89-.13,1.24-.17.35-.04.68-.14,1.21-.31.27-.08.57-.21.93-.38.37-.16.8-.39,1.27-.7.96-.76,1.82-1.62,2.73-2.65.88-1.04,1.73-2.24,2.36-3.64.47-1,.84-2.03.91-1.82.12-.7.18-1.57.1-2.43v-.13s-.01,0-.01,0c0,0,0-.02,0-.02,0-.02,0,.04,0,.01v-.07c.01-.18.02-.36.03-.54.02-.35,0-.69.01-1-.15-1.32-.36-1.91-.47-2.05-.12-.14-.18.18-.22.71-.04.58-.09,1.3-.13,2-.01.18-.04.36-.05.54-.02.16-.04.4-.05.42v.06s0,.02,0,0v.06c0,.09,0,.17.01.25,0,.16,0,.31,0,.44Z"/>
          <path class="cls-1" d="M16.54,60.87c.21.22.64-.66.88-.89l.1-.42c.39-.98.17-1.19-.33-.65.07.33-.41,1.39-.65,1.97Z"/>
          <path class="cls-1" d="M17.15,69.83l-.31-.08c.17.47.35.94.54,1.4.16-.1-.1-.77-.23-1.32Z"/>
          <path class="cls-1" d="M31.69,57.68c-.99-1.12-1.26-1.74-2.58-2.67l-.07.58c1.05,1.14,1.95,2.46,3.03,3.84.56.32.33-.17,0-.7-.33-.54-.76-1.11-.38-1.05Z"/>
          <path class="cls-1" d="M29.89,54.73c1.26.71,2.38,1.86,3.3,3.06.94,1.19,1.72,2.4,2.62,3.33.37-.57-.24-1.73-1.18-2.81-.93-1.1-2.14-2.09-2.7-2.87-1.01-.76-1.65-1.15-2.98-1.95-1.06-.45.38.71.93,1.24Z"/>
          <path class="cls-1" d="M35.65,62.06c.12.29.32.59.42.75.18.17.03-.4-.01-.69-.11-.3-.72-.91-.41-.06Z"/>
        </g>
      </g>
    </g>
  </g>
</svg>